<svg viewBox="0 0 1705.9000244140625 400" xmlns="http://www.w3.org/2000/svg"><g><g><g><g><g><line x1="49.98400115966797" y1="377.6019992828369" x2="44.98400115966797" y2="377.6019992828369" style="visibility: inherit;" fill="rgb(0, 0, 0)" stroke="rgb(204, 204, 204)" stroke-width="1px"></line><line x1="49.98400115966797" y1="335.6462215847439" x2="44.98400115966797" y2="335.6462215847439" style="visibility: inherit;" fill="rgb(0, 0, 0)" stroke="rgb(204, 204, 204)" stroke-width="1px"></line><line x1="49.98400115966797" y1="293.6904438866509" x2="44.98400115966797" y2="293.6904438866509" style="visibility: inherit;" fill="rgb(0, 0, 0)" stroke="rgb(204, 204, 204)" stroke-width="1px"></line><line x1="49.98400115966797" y1="251.7346661885579" x2="44.98400115966797" y2="251.7346661885579" style="visibility: inherit;" fill="rgb(0, 0, 0)" stroke="rgb(204, 204, 204)" stroke-width="1px"></line><line x1="49.98400115966797" y1="209.77888849046488" x2="44.98400115966797" y2="209.77888849046488" style="visibility: inherit;" fill="rgb(0, 0, 0)" stroke="rgb(204, 204, 204)" stroke-width="1px"></line><line x1="49.98400115966797" y1="167.82311079237184" x2="44.98400115966797" y2="167.82311079237184" style="visibility: inherit;" fill="rgb(0, 0, 0)" stroke="rgb(204, 204, 204)" stroke-width="1px"></line><line x1="49.98400115966797" y1="125.86733309427908" x2="44.98400115966797" y2="125.86733309427908" style="visibility: inherit;" fill="rgb(0, 0, 0)" stroke="rgb(204, 204, 204)" stroke-width="1px"></line><line x1="49.98400115966797" y1="83.91155539618602" x2="44.98400115966797" y2="83.91155539618602" style="visibility: inherit;" fill="rgb(0, 0, 0)" stroke="rgb(204, 204, 204)" stroke-width="1px"></line><line x1="49.98400115966797" y1="41.95577769809301" x2="44.98400115966797" y2="41.95577769809301" style="visibility: inherit;" fill="rgb(0, 0, 0)" stroke="rgb(204, 204, 204)" stroke-width="1px"></line><line x1="49.98400115966797" y1="0" x2="44.98400115966797" y2="0" style="visibility: inherit;" fill="rgb(0, 0, 0)" stroke="rgb(204, 204, 204)" stroke-width="1px"></line></g><g transform="translate(39.98400115966797, 0)"><text style="text-anchor: end; visibility: hidden; font-family: Roboto, sans-serif; font-size: 12px; font-weight: 200;" x="0" y="377.6019992828369" dx="0em" dy="0.3em" fill="rgb(33, 33, 33)" stroke="none" stroke-width="1px">0.82</text><text style="text-anchor: end; visibility: inherit; font-family: Roboto, sans-serif; font-size: 12px; font-weight: 200;" x="0" y="335.6462215847439" dx="0em" dy="0.3em" fill="rgb(33, 33, 33)" stroke="none" stroke-width="1px">0.84</text><text style="text-anchor: end; visibility: inherit; font-family: Roboto, sans-serif; font-size: 12px; font-weight: 200;" x="0" y="293.6904438866509" dx="0em" dy="0.3em" fill="rgb(33, 33, 33)" stroke="none" stroke-width="1px">0.86</text><text style="text-anchor: end; visibility: inherit; font-family: Roboto, sans-serif; font-size: 12px; font-weight: 200;" x="0" y="251.7346661885579" dx="0em" dy="0.3em" fill="rgb(33, 33, 33)" stroke="none" stroke-width="1px">0.88</text><text style="text-anchor: end; visibility: inherit; font-family: Roboto, sans-serif; font-size: 12px; font-weight: 200;" x="0" y="209.77888849046488" dx="0em" dy="0.3em" fill="rgb(33, 33, 33)" stroke="none" stroke-width="1px">0.9</text><text style="text-anchor: end; visibility: inherit; font-family: Roboto, sans-serif; font-size: 12px; font-weight: 200;" x="0" y="167.82311079237184" dx="0em" dy="0.3em" fill="rgb(33, 33, 33)" stroke="none" stroke-width="1px">0.92</text><text style="text-anchor: end; visibility: inherit; font-family: Roboto, sans-serif; font-size: 12px; font-weight: 200;" x="0" y="125.86733309427908" dx="0em" dy="0.3em" fill="rgb(33, 33, 33)" stroke="none" stroke-width="1px">0.94</text><text style="text-anchor: end; visibility: inherit; font-family: Roboto, sans-serif; font-size: 12px; font-weight: 200;" x="0" y="83.91155539618602" dx="0em" dy="0.3em" fill="rgb(33, 33, 33)" stroke="none" stroke-width="1px">0.96</text><text style="text-anchor: end; visibility: inherit; font-family: Roboto, sans-serif; font-size: 12px; font-weight: 200;" x="0" y="41.95577769809301" dx="0em" dy="0.3em" fill="rgb(33, 33, 33)" stroke="none" stroke-width="1px">0.98</text><text style="text-anchor: end; visibility: hidden; font-family: Roboto, sans-serif; font-size: 12px; font-weight: 200;" x="0" y="0" dx="0em" dy="0.3em" fill="rgb(33, 33, 33)" stroke="none" stroke-width="1px">1</text></g><line x1="49.98400115966797" y1="0" x2="49.98400115966797" y2="377.6019992828369" fill="rgb(0, 0, 0)" stroke="rgb(204, 204, 204)" stroke-width="1px"></line></g></g><g transform="translate(49, 0)" clip-path="url(#clip_0)"><clipPath id="clip_0"><rect width="1655" height="377"></rect></clipPath><g><g><g><line x1="0" y1="0" x2="0" y2="377.6019992828369" fill="rgb(0, 0, 0)" stroke="rgb(66, 66, 66)" stroke-width="1px" opacity="0.25"></line><line x1="165.59159988403323" y1="0" x2="165.59159988403323" y2="377.6019992828369" fill="rgb(0, 0, 0)" stroke="rgb(66, 66, 66)" stroke-width="1px" opacity="0.25"></line><line x1="331.18319976806646" y1="0" x2="331.18319976806646" y2="377.6019992828369" fill="rgb(0, 0, 0)" stroke="rgb(66, 66, 66)" stroke-width="1px" opacity="0.25"></line><line x1="496.7747996520996" y1="0" x2="496.7747996520996" y2="377.6019992828369" fill="rgb(0, 0, 0)" stroke="rgb(66, 66, 66)" stroke-width="1px" opacity="0.25"></line><line x1="662.3663995361329" y1="0" x2="662.3663995361329" y2="377.6019992828369" fill="rgb(0, 0, 0)" stroke="rgb(66, 66, 66)" stroke-width="1px" opacity="0.25"></line><line x1="827.9579994201661" y1="0" x2="827.9579994201661" y2="377.6019992828369" fill="rgb(0, 0, 0)" stroke="rgb(66, 66, 66)" stroke-width="1px" opacity="0.25"></line><line x1="993.5495993041992" y1="0" x2="993.5495993041992" y2="377.6019992828369" fill="rgb(0, 0, 0)" stroke="rgb(66, 66, 66)" stroke-width="1px" opacity="0.25"></line><line x1="1159.1411991882323" y1="0" x2="1159.1411991882323" y2="377.6019992828369" fill="rgb(0, 0, 0)" stroke="rgb(66, 66, 66)" stroke-width="1px" opacity="0.25"></line><line x1="1324.7327990722658" y1="0" x2="1324.7327990722658" y2="377.6019992828369" fill="rgb(0, 0, 0)" stroke="rgb(66, 66, 66)" stroke-width="1px" opacity="0.25"></line><line x1="1490.3243989562989" y1="0" x2="1490.3243989562989" y2="377.6019992828369" fill="rgb(0, 0, 0)" stroke="rgb(66, 66, 66)" stroke-width="1px" opacity="0.25"></line><line x1="1655.9159988403321" y1="0" x2="1655.9159988403321" y2="377.6019992828369" fill="rgb(0, 0, 0)" stroke="rgb(66, 66, 66)" stroke-width="1px" opacity="0.25"></line></g><g><line x1="0" y1="377.6019992828369" x2="1655.9159988403321" y2="377.6019992828369" fill="rgb(0, 0, 0)" stroke="rgb(66, 66, 66)" stroke-width="1px" opacity="0.25"></line><line x1="0" y1="335.6462215847439" x2="1655.9159988403321" y2="335.6462215847439" fill="rgb(0, 0, 0)" stroke="rgb(66, 66, 66)" stroke-width="1px" opacity="0.25"></line><line x1="0" y1="293.6904438866509" x2="1655.9159988403321" y2="293.6904438866509" fill="rgb(0, 0, 0)" stroke="rgb(66, 66, 66)" stroke-width="1px" opacity="0.25"></line><line x1="0" y1="251.7346661885579" x2="1655.9159988403321" y2="251.7346661885579" fill="rgb(0, 0, 0)" stroke="rgb(66, 66, 66)" stroke-width="1px" opacity="0.25"></line><line x1="0" y1="209.77888849046488" x2="1655.9159988403321" y2="209.77888849046488" fill="rgb(0, 0, 0)" stroke="rgb(66, 66, 66)" stroke-width="1px" opacity="0.25"></line><line x1="0" y1="167.82311079237184" x2="1655.9159988403321" y2="167.82311079237184" fill="rgb(0, 0, 0)" stroke="rgb(66, 66, 66)" stroke-width="1px" opacity="0.25"></line><line x1="0" y1="125.86733309427908" x2="1655.9159988403321" y2="125.86733309427908" fill="rgb(0, 0, 0)" stroke="rgb(66, 66, 66)" stroke-width="1px" opacity="0.25"></line><line x1="0" y1="83.91155539618602" x2="1655.9159988403321" y2="83.91155539618602" fill="rgb(0, 0, 0)" stroke="rgb(66, 66, 66)" stroke-width="1px" opacity="0.25"></line><line x1="0" y1="41.95577769809301" x2="1655.9159988403321" y2="41.95577769809301" fill="rgb(0, 0, 0)" stroke="rgb(66, 66, 66)" stroke-width="1px" opacity="0.25"></line><line x1="0" y1="0" x2="1655.9159988403321" y2="0" fill="rgb(0, 0, 0)" stroke="rgb(66, 66, 66)" stroke-width="1px" opacity="0.25"></line></g></g></g><g><g><line x1="0" y1="2097.788884904649" x2="1655.9159988403321" y2="2097.788884904649" fill="rgb(0, 0, 0)" stroke="rgb(153, 153, 153)" stroke-width="1.5px"></line></g></g><g><g><line x1="165.59159988403323" y1="0" x2="165.59159988403323" y2="377.6019992828369" fill="rgb(0, 0, 0)" stroke="rgb(153, 153, 153)" stroke-width="1.5px"></line></g></g><g><g><g><g><g><path style="fill: none;" stroke="rgb(255, 112, 67)" stroke-width="2px" d="M238.2863122331238,377.7412306554907L238.78308703277588,369.16089110422564L239.27986183242797,360.9536714082214L241.76373583068846,364.5129054128749L242.2605106303406,367.92381125604174L242.42610223022461,360.2334520447094L244.08201822906497,363.5988764392386L246.89707542709354,356.28970655489434L247.22825862686156,349.2617183845309L250.70568222442628,342.49899598146357L251.2024570240784,335.9868023580224L253.52073942245488,329.7114723074374L254.348697421875,342.91055217428124L258.8196706187439,336.72450123577767L260.4755866175842,330.75181919306044L261.46913621688844,324.98165677960407L261.8003194166565,319.4038880133011L262.6282774160767,314.00905091086656L262.7938690159607,308.7882939395241L265.27774301422124,303.73332756858775L268.2583918121338,298.83638036301676L268.5895750119019,294.09015912991356L270.57667421051025,297.6951182629495L271.7358154096985,293.10361912112L271.90140700958256,296.6210128801042L272.2325902093506,300.03641445294073L272.7293650090027,295.6005542831643L273.06054820877074,291.28969826082505L275.04764740737915,287.0986378790814L276.7035634062195,290.4684811458036L278.6906626048279,286.39816815735145L279.5186206042481,282.43644575457364L283.82400220123293,285.7417443635334L284.4863686007691,281.8879632761784L285.1487350003052,278.1330453203825L285.31432660018925,274.4732361992726L286.47346779937743,277.7230025557322L287.96379219833375,274.15530127300286L288.6261585978699,270.67466412553324L289.288524997406,267.27794421611054L290.11648299682616,263.9621444997583L290.7788493963623,260.72440896890765L292.2691737953186,257.56201445353366L292.93154019485473,267.0546463620217L293.2627233946228,263.8859656298312L293.5939065943909,260.78853667511595L294.7530477935791,257.7599844378332L295.5810057929993,254.7980382561683L295.91218899276737,251.90052619272942L296.74014699218753,249.06536972677804L297.0713301919556,246.29057878525666L297.7336965914917,249.35836038083727L298.39606299102786,246.63550167986267L299.38961259033204,249.63926004321195L299.5552041902161,246.96633549315456L303.36381098754885,255.4701507729606L304.026177387085,252.7868621257736L309.49070018325807,250.15675177933673L310.6498413824463,247.57825566510823L311.64339098175054,250.4057713359198L313.96167338012697,247.87185384612184L314.6240397796631,250.64529620260137L315.78318097885136,248.15436304863857L316.1143641786194,245.71003261155582L317.1079137779236,243.31101037052446L317.4390969776917,251.10809941559202L319.7573793760681,248.69858354172658L319.9229709759522,246.3325257810679L321.5788869747925,244.00876207606404L322.0756617744446,246.63213805034007L323.56598617340086,244.34412040463968L324.228352572937,242.0959371195446L324.89071897247317,239.8865579951022L326.3810433714295,237.714988051861L326.5466349713135,235.58026603848137L327.5401845706177,233.48146301458485L327.70577617050174,231.4176810044609L328.5337341699219,229.38805171754203L330.5208333685303,227.39173533179138L331.5143829678345,225.42791933645546L332.0111577674866,223.49581743079165L333.5014821664429,221.59466847567785L335.3229897651673,219.7237354951291L338.46923016296387,222.2775206005187L340.6219209614563,224.79134956476292L341.6154705607605,222.93483967318184L342.1122453604126,221.1069308011218L342.4434285601807,223.5763298754802L343.10579495971683,226.00826067667654L344.09934455902106,224.19429067358587L344.9273025584412,222.40743448667885L346.58321855728155,220.64708958565774L347.57676815658573,223.03514077867243L348.4047261560059,225.3882765352104L350.0606421548462,223.64055833813813L350.8886001542664,221.91802681122783L357.0154893499756,220.22014223902292L357.6778557495117,222.53239090828123L357.8434473493958,220.85214516318345L358.0090389492798,219.19543859381258L360.9896877471924,217.56178079956106L362.9767869458008,215.9506949081078L363.14237854568483,214.3617171121195L364.13592814498907,212.79439622486572L365.29506934417725,211.24829325384025L369.60045094116214,209.7229809915632L369.93163414093016,208.21804362275162L371.5875501397705,206.7330763470832L373.4090577384949,205.26768501687437L373.90583253814697,203.8214857889421L374.4026073377991,202.39410479005633L377.71443933547977,200.98517779531443L378.70798893478394,199.59434991891172L379.8671301339722,201.82911872486898L380.8606797332764,200.44878584649283L382.51659573211674,199.08585155787642L383.5101453314209,197.7399896343305L384.006920131073,196.41088195611874L385.8284277297974,198.60323194118004L386.3252025294495,200.76862342715413L386.82197732910157,199.44190841397554L386.9875689289856,198.1313106381667L394.9359657234192,196.8365388231812L395.43274052307135,195.5573086691486L395.92951532272343,194.29334264523715L396.09510692260744,193.044369789384L399.7381221200562,191.81012551509787L401.7252213186646,190.59035142503782L402.0564045184326,189.38479513109675L402.71877091796875,188.1932100807248L403.3811373175049,190.29774065538692L404.043503717041,189.11294477635593L408.1832937141419,187.94164666695215L408.34888531402595,186.783617550229L410.1703929127503,185.63863379028297L411.49512571182254,184.50647674865576L412.1574921113587,186.56916128202923L412.4886753111267,185.44280936970262L415.30373250915534,184.32886857057161L417.78760650741583,186.36175504287448L418.44997290695187,185.2533876792785L422.58976290405275,184.1570363021754L425.23922850219725,183.07250710409616L425.4048201020814,181.99961042317946L427.88869410034187,180.9381606329158L428.5510604998779,179.88797603539552L430.0413848988342,178.8488787579183L431.2005260980225,177.8206946528596L431.36611769790653,176.80325320066783L433.5188084963989,175.79638741586578L435.0091328953552,174.79993375596916L435.8370908947754,173.81373203320743L436.66504889419554,172.8376253289398L437.1618236938477,171.87145991068542L437.98978169326784,170.91508515166313L438.48655649291993,169.96835345276259L440.4736556915284,169.03112016684446L441.7983884906006,168.10324352531788L442.9575296897889,167.18458456688197L444.11667088897707,166.27500706838362L445.6069952879334,165.37437747770775L446.26936168746954,164.4825648486258L446.43495328735355,163.59944077755154L446.60054488723756,165.5284421930957L446.9317280870056,164.64739759964945L447.4285028866577,163.774814313466L448.5876440858459,162.9105714574725L450.0779684848022,162.05455044609687L451.73388448364256,161.2066349312255L452.3962508831787,160.3667107496801L452.7274340829468,162.2557020642003L453.2242088825989,161.41736763563196L454.0521668820191,160.58682533135556L454.5489416816712,159.7639674248717L454.7145332815552,158.9486881663117L454.88012488143926,158.14088373730348L458.0263652792359,157.34045220707446L459.5166896781922,156.54729348974953L460.5102392774964,155.7613093027961L461.6693804766846,154.98240312659144L461.8349720765686,154.2104801650722L463.3252964755249,153.4454473074309L464.4844376747132,152.68721309083517L466.47153687332155,151.93568766412642L467.9618612722779,151.19078275247756L468.62422767181397,150.45241162297185L470.2801436706543,149.72048905108787L470.94251007019045,148.99493128804787L472.43283446914677,148.27565602901117L474.58552526763924,147.5625823820926L475.08230006729127,146.85563083816643L476.07584966659545,146.15472324145114L476.4070328663636,145.45978276083142L482.0371472624207,144.77073386191617L483.0306968617249,144.08750227979405L485.84575405975346,143.41001499247562L486.17693725952154,142.73820019499954L486.5081204592896,142.07198727418182L487.5016700585938,141.41130678399372L487.99844485824593,140.75609042154784L488.32962805801395,140.10627100366767L491.3102768559266,139.46178244404328L493.62855925430296,138.8225597309301L493.9597424540711,138.1885389054028L496.9403912519836,137.55965704012561L497.60275765151977,136.93585221863864L498.9274904505921,138.68694701035292L501.74254764862064,138.06244294016082L502.7360972479248,139.79625104695594L506.7102956451416,139.17112919131588L508.69739484375,138.5509557044737L508.8629864436341,137.9356723690069L509.35976124328613,139.646224549327L509.52535284317014,141.34339263212948L509.8565360429383,140.72211526334758L510.1877192427063,140.10566190838009L510.85008564224245,139.4939769041653L511.5124520417786,138.88700544070957L512.3404100411988,138.28469354480657L512.6715932409668,137.68698806413224L515.1554672392273,137.09383665169386L520.7855816352844,136.50518775063807L521.4479480348206,135.92099057939672L521.7791312345886,135.3411951171693L522.6070892340088,134.76575208972943L524.0974136329651,134.1946129555493L525.4221464320374,133.62772989222708L526.0845128315735,133.06505578322262L527.7404288304139,132.50654420488365L528.071612030182,131.95214941375065L528.40279522995,131.40182633414625L528.568386829834,130.85553054603642L529.2307532293702,130.3132182731496L529.7275280290223,129.77484637135737L531.0522608280945,131.40029344456596L531.7146272276307,130.86080740450973L534.0329096260072,132.47173970726288L535.0264592253113,131.9312103950474L535.8544172247315,131.39453975079297L536.0200088246155,130.86168686848225L536.3511920243836,130.3326114182365L536.8479668240357,129.80727363620377L537.1791500238038,131.39316099633672L537.5103332235718,130.8667377233278L537.6759248234558,130.343995163309L538.8350660226441,131.91352666862394L539.3318408222962,131.38973811133826L540.1597988217163,130.86957460717687L543.306039219513,130.35299891098722L544.9619552183533,129.839974286081L545.9555048176575,129.330464495583L546.9490544169616,130.87643597578494L547.6114208164978,130.3658435589413L547.7770124163818,129.85871448236628L549.5985200151061,129.3550138787411L549.7641116149903,128.85470734719473L552.2479856132508,128.35776094552918L553.9039016120911,127.86414118260163L555.3942260110474,127.3738150108543L558.2092832090759,126.88674981899878L561.1899320069886,126.4029134248352L561.3555236068727,125.92227406822035L561.6867068066407,125.44480040417419L563.342622805481,124.97046149611293L564.0049892050172,124.49922680922305L567.1512296028138,124.03106620395991L568.9727372015382,125.53262606222461L570.2974700006104,125.06316994465267L571.2910195999145,124.59674732326967L571.4566111997987,124.1333291215331L571.7877943995667,123.67288663329857L572.1189775993347,123.21539151693776L572.9469355987549,126.63047807961993L577.0867255958557,126.16455614467297L577.2523171957398,125.70158898063806L578.9082331945801,127.16091033775744L579.2394163943482,126.6967638874343L580.0673743937683,126.23553389755071L582.3856567921448,125.77719319454754L583.379206391449,125.32171494137178L584.5383475906372,124.86907263229072L584.8695307904053,124.4192400877885L587.3534047886658,123.9721914495681L588.0157711882019,123.52790117563593L588.34695438797,123.08634403548132L590.4996451864624,122.64749510534403L592.4867443850709,122.21132976356313L594.4738435836792,123.63813449511461L594.6394351835633,123.20068155176062L594.8050267834474,122.76587999300538L596.1297595825196,122.33370600242675L597.1233091818237,123.74571165537078L599.9383663798524,123.31227206542307L600.9319159791565,122.88142892392851L601.0975075790406,122.45315918386997L602.4222403781129,123.8507266859773L603.415789977417,123.42121253601319L604.4093395767212,122.99424170395724L605.2372975761414,122.56979187836441L609.0459043734742,122.14784100797648L609.3770875732422,121.72836729793994L610.2050455726624,121.31134920609172L611.0330035720825,120.89676543930412L613.185694370575,120.4845949499019L614.3448355697632,120.07481693213022L616.8287095680237,119.66741081869236L618.8158087666321,119.26235627734127L619.3125835662842,118.85963320753095L621.6308659646606,118.45922173712795L621.7964575645448,119.82367225673865L622.1276407643128,119.4219155463718L627.4265719606019,119.02244579791218L627.5921635604859,118.62524373754837L627.7577551603699,118.23029030741458L628.9168963595582,117.8375666625794L630.7384039582826,119.18506691219793L633.222277956543,118.79100068084914L633.7190527561951,118.39914112699692L634.0502359559632,118.00946996157369L639.0179839524842,117.62196909703732L641.1706747509766,117.2366206446083L642.6609991499329,116.85340691154198L644.1513235488892,116.47231039845299L645.1448731481934,116.09331379668079L645.8072395477295,115.71639998569835L648.622296745758,115.34155203056122L648.9534799455262,116.66383459737168L649.1190715454102,116.28760175799049L649.2846631452942,115.91341478389998L651.1061707440185,115.54125721871024L654.0868195419312,116.85121585466177L656.9018767399598,118.15410693627938L658.2266095390321,117.77725207544138L662.0352163363648,117.40241990308982L663.5255407353211,117.0295943643826L663.8567239350891,116.65875957391756L664.1879071348573,116.28989981350317L664.8502735343934,115.92299952996318L665.0158651342774,115.55804333297706L666.8373727330018,115.19501599295516L667.3341475326539,114.8339024389453L668.6588803317261,116.11522367840162L669.1556551313782,115.75277220601383L670.6459795303346,117.0258034793726L673.1298535285949,116.6620522603331L673.7922199281311,116.30019459319509L674.1234031278992,115.94021591036676L676.6072771261597,115.58210179328155L678.7599679246521,115.22583797049707L682.5685747219849,114.87141031582134L685.0524487202454,114.51880484647293L685.2180403201295,114.16800772126261L686.3771815193177,113.81900523880691L687.2051395187378,113.47178383576768L688.033097518158,113.12633008511723L688.6954639176942,112.7826306944293L689.0266471174623,112.440672504199L691.6761127156068,112.10044248618281L694.6567615135193,111.76192774176722L694.8223531134033,111.42511550036225L695.9814943125916,111.08999311781199L696.4782691122437,110.75654807483848L700.4524675094605,110.42476797550314L700.9492423091126,111.6625352887902L702.1083835083008,111.32937028226819L702.6051583079529,110.99785694829502L702.770749907837,110.66798319963148L703.101933107605,110.3397370666727L703.2675247074891,110.01310669601767L706.5793567051697,109.68808034906527L707.4073147045899,109.364646400625L708.8976391035461,109.04279333755417L709.2288223033142,108.7225097574069L712.8718375007629,108.40378436711197L714.1965702998352,109.6210849101885L716.5148526982117,109.30096135308047L716.6804442980957,108.9823843992403L717.5084022975159,111.71668876739753L718.336360296936,111.39231228046242L719.4955014961243,111.0694921497983L724.2976578927613,110.74821736154425L724.6288410925293,110.4284770054963L724.9600242922975,110.11026027388677L726.2847570913697,109.79355646019086L729.0998142893983,109.47835495793713L729.9277722888185,109.16464525954791L733.5707874862671,108.85241695518309L734.0675622859193,108.54165973161213L734.8955202853393,108.2323633710917L736.0546614845276,107.9245177502641L736.7170278840638,107.61811283907078L737.0482110838318,107.31313869968038L738.041760683136,107.00958548542812L738.20735228302,106.70744343977701L739.2009018823243,106.40670289528424L740.3600430815125,106.10735427259104L741.3535926808166,107.28211862764633L741.8503674804688,106.9813972624798L744.6654246784973,106.6820585805643L744.9966078782654,106.38409321642801L746.6525238771058,106.08749188896678L747.1492986767578,105.79224540050075L748.3084398759461,105.49834463583474L750.9579054740907,105.20578056133658L751.2890886738587,104.91454422402897L752.2826382731629,104.62462675068885L752.945004672699,104.33601934696232L753.2761878724672,104.04871329648923L755.5944702708435,103.76269996004365L758.4095274688722,103.47797077467797L760.3966266674805,103.19451725288516L761.7213594665528,102.91233098177166L764.7020082644653,102.63140362223368L765.0331914642335,102.35172690815604L765.3643746640015,102.0732926456127L765.8611494636536,101.79609271207951L766.3579242633057,101.52011905565863L769.1729814613343,101.24536369431341L770.9944890600586,100.9718187151119L771.1600806599427,100.69947627348029L773.3127714584351,100.428328592467L778.2805194549561,100.1583679620135L778.6117026547241,99.88958673824001L782.585901051941,99.62197734273346L783.2482674514771,99.35553226185043L783.5794506512452,99.09024404602533L784.5730002505494,98.82610530909052L785.0697750502015,98.56310872760002L785.4009582499696,98.30124704016872L786.8912826489259,98.0405130468136L788.0504238481141,97.78089960830869L790.2031146466065,97.52239964554177L791.5278474456787,97.26500613888673L793.6805382441712,97.00871212757852L794.0117214439392,96.7535107090955L794.5084962435914,96.49939503855644L796.4955954421997,96.24635832811379L797.1579618417359,95.99439384636653L797.985919841156,97.11423377697645L798.317103040924,96.86081687621487L799.9730190397644,96.60846740930212L800.6353854393005,96.3571787716051L802.788076237793,96.10694441284899L805.4375418359375,95.857757836554L806.2654998353577,95.60961259948796L807.4246410345459,95.3625023111191L811.5644310316468,95.11642063307974L811.7300226315308,94.8713612786353L813.0547554306031,94.62731801215853L814.7106714294434,94.38428464861218L816.0354042285157,94.14225505303689L817.1945454277039,93.90122314004454L817.8569118272401,93.66118287331837L819.6784194259644,93.42212826512089L820.6719690252686,93.18405337580528L821.6655186245728,92.94695231333273L825.3085338220216,92.71081923279812L827.1300414207459,92.47564833595669L827.9579994201661,92.24143387076339L829.4483238191224,92.00817013091033L829.6139154190064,91.77585145537407L831.6010146176147,91.54447222796698L833.4225222163391,91.31402687689635L833.9192970159913,91.08450987432198L835.5752130148317,92.17211714969666L835.7408046147157,91.94114215244754L835.9063962145997,91.71109239182495L843.3580182093812,91.48196243393969L844.1859762088013,91.2537468873534L844.3515678086853,91.02644040266195L846.0074838075257,90.80003767208603L858.0956705990601,90.57453342906888L859.9171781977844,90.34992244787685L860.0827697976684,90.12619954320286L860.4139529974365,89.9033595697781L860.7451361972047,89.68139742198504L861.2419109968567,89.460308033477L861.4075025967408,89.24008637680004L861.7386857965088,89.02072746302197L865.5472925938417,88.8022263413627L866.3752505932617,88.58457809883113L866.8720253929138,88.36777785986523L868.1967581919861,88.1518207859762L870.0182657907104,87.93670207539516L871.5085901896667,87.7224169627285L872.0053649893189,87.50896071861104L872.1709565892029,87.29632864936804L874.6548305874634,87.08451609667908L877.304296185608,86.87351843724356L878.2978457849122,86.6633310824556L878.9602121844483,86.45394947807625L880.4505365834045,86.24536910391504L880.7817197831728,86.03758547350851L882.2720441821291,85.83059413381068L882.9344105816651,85.62439066487963L883.9279601809694,85.4189706795702L884.7559181803895,85.21432982323246L889.0612997773744,85.01046377341014L890.5516241763305,84.80736823954149L893.0354981745911,84.60503896267099L894.1946393737794,84.40347171515258L895.1881889730835,84.20266230036776L895.8505553726197,84.00260655243754L896.0161469725037,83.80330033594412L899.1623873703004,83.6047395456515L899.3279789701844,83.40692010623096L899.6591621699524,84.44905382512192L900.6527117692567,84.24978082307038L905.6204597657777,84.0512479838867L906.6140093650819,83.85345129022986L907.276375764618,83.65638675376265L907.77315056427,83.46005041489059L909.0978833633424,83.26443834250017L909.4290665631104,83.06954663370594L912.2441237611389,82.8753714135968L912.409715361023,82.68190883498612L915.5559557588196,82.48915507816442L915.7215473587038,82.29710635065238L916.2183221583558,82.10575888695993L917.7086465573121,81.91510894834963L919.0333793563844,81.72515282259353L919.3645625561525,81.53588682374357L919.5301541560365,81.3473072918959L922.0140281542969,81.15941059296453L923.6699441531372,80.97219311845205L924.1667189527894,80.78565128522361L925.9882265515138,81.8064175196858L926.4850013511658,81.61844372645247L926.8161845509338,81.43114493122354L927.1473677507018,81.24451759796234L929.1344669493104,81.05855821527186L931.9495241473388,80.87326329617997L934.4333981455994,80.68862937792407L935.4269477449036,80.5046530217453L936.5860889440918,80.3213308126787L937.9108217431641,80.13865935934749L938.5731881427002,79.95663529376195L939.7323293418884,79.77525527111652L939.8979209417726,79.59451596958914L940.0635125416566,79.41441409014745L941.7194285404969,79.23494635635201L946.0248101374818,79.05610951416199L946.8527681369019,78.87790033174619L949.5022337350465,78.70031559929289L950.3301917344666,79.70261042835988L951.3237413337708,79.52361671083432L951.9861077333069,79.34524717937842L952.1516993331909,79.16749866349606L953.4764321322632,78.99036801410853L953.9732069319152,79.98580864963371L954.1387985317995,79.80728868628103L954.4699817315675,79.62938631794476L954.9667565312195,79.45209843385652L956.4570809301758,79.27542194408728L957.1194473297119,79.09935377937362L957.7818137292481,78.9238908909446L958.2785885289002,78.74903025035088L958.4441801287842,78.57476884929743L959.4377297280885,78.40110369947284L960.4312793273925,78.22803183238645L960.7624625271608,78.05555029920409L961.2592373268128,77.88365617058315L967.0549433227538,77.7123465365153L969.0420425213624,77.54161850616451L972.188282919159,77.37146920771008L972.5194661189271,77.20189578819155L975.1689317170716,77.03289541335221L975.6657065167236,76.86446526748787L975.9968897164919,76.69660255329444L976.1624813163759,76.52930449171848L979.3087217141725,76.36256832180688L983.2829201113892,76.19639130056142L983.7796949110412,76.03077070279318L985.9323857095338,75.86570382097658L987.2571185086059,75.70118796510782L988.7474429075622,75.53722046256262L989.2442177072145,75.37379865795779L989.5754009069825,75.21091991300929L989.7409925068665,75.04858160639678L992.0592749052429,74.8867811336284L993.3840077043152,74.7255159069035L997.0270229017639,74.56478335498092L998.0205725010682,74.40458092304618L998.5173473007202,74.24490607258033L999.6764884999085,74.08575628123056L1001.829179298401,73.92712904268083L1002.160362498169,73.76902186652633L1002.325954098053,73.61143227814553L1003.4850952972413,73.45435781857537L1006.4657440951539,73.29779604439061L1009.1152096932985,73.1417445275766L1010.2743508924866,72.98620085541219L1011.1023088919069,72.83116263034573L1011.2679004917909,72.67662746987988L1012.261450091095,72.52259300645032L1014.4141408895875,72.36905688731082L1014.7453240893556,72.21601677441697L1015.7388736886596,72.06347034431063L1020.0442552856446,71.9114152880082L1020.8722132850648,71.75984931088664L1023.0249040835572,71.6087701325718L1023.6872704830932,71.45817548682965L1026.6679192810059,71.30806312145421L1027.9926520800782,71.158430798162L1031.8012588774109,71.00927629248241L1032.298033677063,70.86059739365243L1032.4636252769471,70.71239190451051L1033.1259916764832,70.56465764139293L1033.2915832763672,70.41739243403053L1033.9539496759032,70.27059412544284L1037.5969648733521,70.12426057184283L1041.4055716706848,69.97838964252918L1043.5582624691772,69.8329792197921L1046.2077280673218,69.68802719881026L1048.0292356660461,69.54353148755713L1050.6787012641907,69.39949000669917L1051.1754760638428,69.25590068950355L1052.9969836625671,69.11276148174144L1053.1625752624514,68.97007034159233L1053.6593500621034,68.82782523955197L1056.474407260132,68.68602415834091L1057.136773659668,68.54466509280839L1060.4486056573487,68.40374604984522L1060.7797888571167,68.26326504829312L1063.0980712554933,68.12322011885158L1063.9260292549134,67.98360930399411L1066.24431165329,67.8444306578781L1066.409903253174,67.70568224625687L1066.741086452942,67.56736214639498L1067.5690444523623,67.42946844698209L1072.205609249115,68.36119556600367L1073.6959336480713,68.22197145835634L1074.8550748472596,68.08317476994073L1075.5174412467957,67.94480360465052L1076.5109908461,67.8068560775646L1077.504540445404,67.66933031486109L1078.3324984448243,67.53222445373963L1078.8292732444763,67.3955366423384L1079.1604564442443,67.25926503965326L1081.644330442505,67.12340781546018L1083.1346548414613,66.98796315023503L1084.4593876405336,66.8529292350763L1087.274444838562,66.71830427162713L1088.1024028379823,66.58408647199845L1088.4335860377503,66.45027405869358L1090.4206852363586,66.3168652645333L1090.7518684361266,66.18385833257798L1091.745418035431,66.05125151605725L1093.7325172340393,65.91904307829515L1094.5604752334596,65.787231292637L1096.2163912322999,65.65581444237716L1097.8723072311402,65.52479082068754L1100.6873644291686,66.43971165516072L1102.508872027893,66.30738703428761L1102.8400552276612,66.17545678625261L1103.5024216271972,66.04391921636721L1105.4895208258056,65.91277263962228L1105.9862956254578,65.7820153806212L1112.7755512207032,65.65164577351214L1113.2723260203552,65.52166216191725L1113.9346924198915,65.39206289886994L1116.2529748182678,65.26284634674226L1118.0744824169924,65.13401087718556L1119.2336236161805,65.00555487105778L1120.3927648153688,64.87747671836404L1122.048680814209,64.74977481818955L1122.5454556138611,64.62244757863635L1123.3734136132814,64.49549341675922L1124.2013716127015,64.36891075850318L1125.1949212120057,64.24269803864286L1127.182020410614,64.11685370071669L1127.347612010498,63.991376196969334L1130.1626692085267,63.86626398828977L1130.6594440081788,63.74151554414929L1131.818585207367,63.61712934254634L1133.8056844059754,63.49310386994013L1136.289558404236,63.3694376211986L1136.620741604004,63.246129099536525L1137.7798828031923,63.12317681645858L1139.4357988020327,63.00057929170239L1140.7605316011047,62.87833505318056L1141.091714800873,62.756442636926145L1141.422898000641,62.63490058703347L1142.250856000061,62.513707455607886L1143.7411803990174,63.40667412390071L1145.3970963978577,63.28421653731359L1145.5626879977417,63.16210917272012L1147.218603996582,63.040350590694906L1147.8809703961183,62.918939359675726L1148.0465619960023,62.79787405591108L1151.192802393799,62.677153263404506L1152.020760393219,62.55677557386392L1152.351943592987,62.43673958664858L1153.0143099925233,62.31704390871556L1154.5046343914796,62.19768715457162L1157.485283189392,62.07866794621907L1160.7971151870727,61.95998491310726L1161.625073186493,61.84163669208046L1163.1153975854493,61.72362192733017L1164.1089471847533,61.605939270343626L1164.2745387846373,61.48858737985526L1164.4401303845216,61.37156492179951L1164.9369051841736,61.254870569261065L1165.4336799838256,61.13850300242773L1169.0766951812743,61.022460908541724L1171.891752379303,60.906742981854954L1172.057343979187,60.791347923579465L1172.7197103787232,60.67627444184314L1173.5476683781433,60.56152125164328L1174.7068095773316,60.44708707480074L1176.197133976288,60.33297063991353L1176.528317176056,60.219170682315266L1178.1842331748962,60.10568594402741L1179.1777827742005,59.99251517371531L1179.5089659739685,59.879657126646734L1180.5025155732728,59.7671105646452L1180.8336987730409,59.65487425605034L1181.1648819728089,59.54294697567293L1183.1519811714174,59.43132750475169L1183.4831643711855,59.32001463091271L1183.8143475709535,59.209007148127824L1187.6229543682862,59.09830385667193L1189.1132787672425,58.98790356308249L1189.6100535668947,58.87780508011884L1192.2595191650391,58.768007226721174L1193.9154351638795,58.65850882797091L1194.0810267637635,58.54930871505054L1194.4122099635317,58.44040572520465L1195.4057595628358,58.33179870169842L1196.39930916214,58.22348649378308L1197.5584503613281,58.11546795665109L1198.3864083607484,58.00774195140459L1199.5455495599367,58.87162218835617L1200.5390991592408,58.76268043858493L1202.6917899577331,58.6540326897417L1203.8509311569214,58.545677807457864L1206.997171554718,58.4376146631808L1210.3090035523987,58.329842134135504L1210.8057783520508,58.22235910328819L1211.468144751587,58.11516445930903L1211.633736351471,58.008257096535665L1212.7928775506593,57.90163591493728L1215.6079347486877,57.7952998200795L1217.429442347412,57.68924772308647L1219.2509499461364,57.58347854060944L1220.4100911453247,57.47799119478839L1221.403640744629,57.372784613218826L1225.3778391418457,57.26785772891699L1229.1864459391784,57.163209480285445L1233.1606443363953,57.058838811079525L1234.4853771354676,56.95474467037285L1235.1477435350037,56.850926012525484L1237.300434333496,56.747381797147995L1239.1219419322206,56.644110989071876L1239.7843083317566,56.54111255831489L1241.109041130829,56.43838548004818L1241.274632730713,56.33592873456491L1241.9369991302492,56.23374130724852L1243.4273235292055,56.13182218854055L1243.5929151290895,56.030170373908625L1245.2488311279299,55.92878486381675L1245.4144227278139,55.827664663691614L1245.5800143276979,55.726808783895514L1246.9047471267702,55.62621623969387L1247.5671135263062,55.52588605122244L1250.2165791244508,55.42581724346162L1254.1907775216675,55.32600884620401L1254.8531439212038,55.22645989402411L1255.1843271209718,55.12716942625229L1255.3499187208558,55.028136486940575L1255.8466935205079,54.929360124838226L1257.3370179194642,54.8308393933609L1257.5026095193482,54.73257335056042L1258.9929339183045,54.63456105910068L1259.4897087179568,54.53680158622517L1261.145624716797,54.439294003731526L1261.9735827162172,54.34203738794218L1267.9348803120424,54.24503081967875L1269.4252047109985,54.14827338423272L1269.7563879107668,54.051764171339045L1270.4187543103028,53.95550227515027L1271.412303909607,53.85948679420745L1271.9090787092591,53.76371683141633L1273.0682199084474,53.66819149401868L1273.5649947080994,53.57290989356649L1274.3929527075195,53.47787114589722L1274.8897275071718,53.3830743711068L1276.214460306244,53.288518693525035L1276.87682670578,53.19420324168839L1277.5391931053161,53.10012714831717L1279.1951091041565,53.00628955028789L1279.3607007040405,52.91268958861112L1281.347799902649,52.81932640840436L1282.010166302185,52.726199158868646L1283.1693075013734,52.633306993263716L1283.8316739009094,52.540649068884186L1285.6531814996338,52.44822454703575L1287.6402806982421,52.356032593010916L1290.2897462963867,52.26407237606525L1294.4295362934874,52.17234306939448L1296.913410291748,52.08084385011117L1298.2381430908204,51.989573899218556L1299.2316926901244,51.89853240159337L1299.8940590896607,51.80771854595782L1300.5564254891967,51.717131524860534L1301.881158288269,51.626770534649125L1302.8747078875733,51.53663477545441L1303.0402994874573,51.44672345116321L1305.855356685486,51.35703576939754L1307.3456810844423,51.26757094149391L1308.3392306837466,51.17832818248107L1309.6639634828186,51.08930671105647L1310.160738282471,51.00050574956842L1310.823104682007,50.911924523991104L1312.4790206808473,50.823562263907085L1313.8037534799196,50.73541820248195L1314.3005282795716,50.647491576447884L1316.6188106779482,50.5597816260807L1317.2811770774842,50.47228759517857L1318.6059098765566,50.38500873104435L1319.1026846762086,50.297944284461444L1320.0962342755129,50.21109350967782L1323.0768830734255,50.12445566438266L1323.4080662731935,50.03803000968874L1326.3887150711062,49.95181581011076L1327.0510814706422,49.8658123335483L1327.5478562702942,49.780018851263904L1330.0317302685548,49.694434637864994L1330.5285050682069,49.60905897128438L1331.190871467743,49.52389113276199L1332.3500126669312,49.438930406824404L1334.5027034654236,49.35417608126738L1335.4962530647279,49.26962744713766L1337.8145354631042,49.18528379871174L1339.8016346617128,49.101144433480144L1340.9607758609009,49.01720865212847L1342.2855086599732,48.93347575851986L1343.6102414590455,48.84994505967383L1343.7758330589295,48.766615865752634L1344.6037910583498,48.68348749004176L1345.2661574578858,48.600559248930324L1347.4188482563782,48.51783046189685L1348.0812146559144,48.43530045148959L1350.3994970542908,48.3529685433098L1352.3865962528992,48.270834065994855L1352.5521878527832,48.18889635120153L1353.7113290519715,48.10715473358726L1355.0360618510438,48.02560855079478L1356.0296114503478,47.94425714343657L1357.0231610496521,47.863099855074374L1358.1823022488404,47.78213603220749L1358.5134854486084,47.70136502425178L1360.0038098475648,47.62078618352733L1360.3349930473328,47.54039886524014L1360.5005846472168,47.46020242746614L1363.6468250450134,47.380196231135145L1364.1435998446655,47.300379640016196L1365.6339242436218,47.220752020700466L1367.7866150421144,47.141312742586095L1369.6081226408387,47.06206117786351L1370.1048974404907,46.98299670149841L1371.760813439331,46.90411869121702L1374.4102790374757,46.82542652749246L1376.2317866362,46.74691959352601L1376.7285614358523,46.66859727523617L1379.2124354341126,46.59045896124065L1380.868351432953,46.51250404284364L1381.033943032837,46.434731914018954L1381.8619010322573,46.357141971397766L1382.0274926321413,46.279733614252194L1382.8554506315613,46.20250624448115L1383.1866338313296,46.12545926659748L1383.8490002308656,46.048592087711306L1384.0145918307496,45.971904117517816L1384.1801834306336,45.895394768283836L1386.6640574288942,45.81906345482923L1387.8231986280823,45.74290959451886L1387.9887902279663,45.66693260724645L1388.6511566275026,45.591131915418465L1388.9823398272706,45.51550694394448L1390.472664226227,45.44005712022091L1391.135030625763,45.36478187412011L1391.6318054254152,45.289680637972744L1395.9371870224,45.21475284655919L1396.102778622284,45.139997937093575L1397.5931030212403,45.06541534921196L1398.0898778208925,44.9910045249575L1398.7522442204286,44.916764908770304L1399.2490190200806,44.842695947472656L1400.904935018921,44.76879709025683L1401.070526618805,44.69506778867035L1401.236118218689,44.62150749660854L1401.4017098185732,44.548115670295836L1402.2296678179932,44.47489176827779L1403.2232174172975,44.40183525140741L1403.8855838168336,44.328945582830286L1404.2167670166016,44.25622222797862L1406.8662326147462,44.183664654551514L1407.8597822140503,44.11127233250953L1408.0253738139343,44.03904473405762L1409.3501066130066,43.96698133363645L1410.3436562123109,43.89508160790851L1411.171614211731,43.82334503574964L1412.4963470108032,43.75177109823272L1413.6554882099915,43.68035927861954L1415.3114042088318,43.60910906234813L1418.2920530067445,43.538019937021566L1419.6167858058166,43.467091392395965L1423.4253926031495,43.396322920369414L1424.5845338023375,43.325714014971844L1425.5780834016418,43.25526417235168L1426.0748582012939,43.1849728907679L1431.208197797699,43.11483967057492L1431.373789397583,43.04486401421511L1434.0232549957277,42.97504542620644L1434.1888465956117,42.90538341313205L1435.844762594452,42.83587748362869L1436.341537394104,42.766527148377016L1436.672720593872,46.091504663750065L1438.4942281925967,46.01697575767256L1439.4877777919007,45.942613243093284L1439.984552591553,45.86841660050508L1440.646918991089,45.794385312549934L1443.2963845892336,45.720518864008106L1443.6275677890017,45.64681674178771L1443.7931593888857,45.57327843491111L1444.4555257884217,45.49990343450884L1444.952300588074,45.42669123380364L1445.283483787842,45.353641328102945L1445.780258587494,45.28075321478722L1447.6017661862184,45.208026393298844L1448.2641325857546,45.135460365132495L1450.085640184479,45.06305463382309L1450.582414984131,44.990808704938516L1453.8942469818116,44.91872208606479L1455.218979780884,44.84679428679937L1456.8748957797243,44.775024818739155L1457.0404873796083,44.70341319547099L1458.8619949783326,44.631958932561744L1462.6706017756653,44.56066154754594L1463.4985597750856,44.489520559919775L1466.313616973114,44.41853549112729L1469.1286741711426,44.34770586455378L1470.122223770447,44.27703120551324L1470.453406970215,44.206511041239466L1473.5996473680116,44.13614490087809L1473.7652389678956,44.06593231547385L1474.4276053674316,43.995872817963374L1475.089971766968,43.92596594316461L1478.0706205648803,43.85621122776904L1479.0641701641846,43.78660821032849L1479.2297617640686,43.71715643124916L1486.184608959198,43.64785543278255L1487.5093417582702,43.578704759012886L1488.8340745573425,43.50970395585072L1488.9996661572266,43.44085257102446L1490.1588073564149,43.3721501540675" fill="none"></path></g></g></g></g><g opacity="0.2"><g><g><g><path style="fill: none;" stroke="rgb(255, 112, 67)" stroke-width="2px" d="M177.84537827545165,1048.8944424523245L181.15721027313234,0L182.48194307220461,0L183.14430947174074,0L186.4561414694214,524.4472212261622L188.60883226791384,0L191.25829786605837,0L191.75507266571046,1048.8944424523245L193.24539706466675,0L195.0669046633911,0L195.8948626628113,0L196.22604586257935,1048.8944424523245L197.05400386199952,524.4472212261622L199.8690610600281,0L203.51207625747682,0L204.34003425689698,0L206.82390825515748,1573.3416636784868L207.81745785446168,0L208.64541585388184,0L209.80455705307008,524.4472212261622L210.4669234526062,0L210.7981066523743,0L213.94434705017093,0L216.59381264831543,524.4472212261622L216.9249958480835,0L218.24972864715576,0L220.2368278457642,0L221.72715224472046,0L223.0518850437927,0L225.70135064193727,524.4472212261622L226.3637170414734,0L235.30566343521122,0L235.47125503509523,0L238.2863122331238,0L238.78308703277588,0L239.27986183242797,0L241.76373583068846,524.4472212261622L242.2605106303406,524.4472212261622L242.42610223022461,0L244.08201822906497,524.4472212261622L246.89707542709354,0L247.22825862686156,0L250.70568222442628,0L251.2024570240784,0L253.52073942245488,0L254.348697421875,1048.8944424523245L258.8196706187439,0L260.4755866175842,0L261.46913621688844,0L261.8003194166565,0L262.6282774160767,0L262.7938690159607,0L265.27774301422124,0L268.2583918121338,0L268.5895750119019,0L270.57667421051025,524.4472212261622L271.7358154096985,0L271.90140700958256,524.4472212261622L272.2325902093506,524.4472212261622L272.7293650090027,0L273.06054820877074,0L275.04764740737915,0L276.7035634062195,524.4472212261622L278.6906626048279,0L279.5186206042481,0L283.82400220123293,524.4472212261622L284.4863686007691,0L285.1487350003052,0L285.31432660018925,0L286.47346779937743,524.4472212261622L287.96379219833375,0L288.6261585978699,0L289.288524997406,0L290.11648299682616,0L290.7788493963623,0L292.2691737953186,0L292.93154019485473,1048.8944424523245L293.2627233946228,0L293.5939065943909,0L294.7530477935791,0L295.5810057929993,0L295.91218899276737,0L296.74014699218753,0L297.0713301919556,0L297.7336965914917,524.4472212261622L298.39606299102786,0L299.38961259033204,524.4472212261622L299.5552041902161,0L303.36381098754885,1048.8944424523245L304.026177387085,0L309.49070018325807,0L310.6498413824463,0L311.64339098175054,524.4472212261622L313.96167338012697,0L314.6240397796631,524.4472212261622L315.78318097885136,0L316.1143641786194,0L317.1079137779236,0L317.4390969776917,1048.8944424523245L319.7573793760681,0L319.9229709759522,0L321.5788869747925,0L322.0756617744446,524.4472212261622L323.56598617340086,0L324.228352572937,0L324.89071897247317,0L326.3810433714295,0L326.5466349713135,0L327.5401845706177,0L327.70577617050174,0L328.5337341699219,0L330.5208333685303,0L331.5143829678345,0L332.0111577674866,0L333.5014821664429,0L335.3229897651673,0L338.46923016296387,524.4472212261622L340.6219209614563,524.4472212261622L341.6154705607605,0L342.1122453604126,0L342.4434285601807,524.4472212261622L343.10579495971683,524.4472212261622L344.09934455902106,0L344.9273025584412,0L346.58321855728155,0L347.57676815658573,524.4472212261622L348.4047261560059,524.4472212261622L350.0606421548462,0L350.8886001542664,0L357.0154893499756,0L357.6778557495117,524.4472212261622L357.8434473493958,0L358.0090389492798,0L360.9896877471924,0L362.9767869458008,0L363.14237854568483,0L364.13592814498907,0L365.29506934417725,0L369.60045094116214,0L369.93163414093016,0L371.5875501397705,0L373.4090577384949,0L373.90583253814697,0L374.4026073377991,0L377.71443933547977,0L378.70798893478394,0L379.8671301339722,524.4472212261622L380.8606797332764,0L382.51659573211674,0L383.5101453314209,0L384.006920131073,0L385.8284277297974,524.4472212261622L386.3252025294495,524.4472212261622L386.82197732910157,0L386.9875689289856,0L394.9359657234192,0L395.43274052307135,0L395.92951532272343,0L396.09510692260744,0L399.7381221200562,0L401.7252213186646,0L402.0564045184326,0L402.71877091796875,0L403.3811373175049,524.4472212261622L404.043503717041,0L408.1832937141419,0L408.34888531402595,0L410.1703929127503,0L411.49512571182254,0L412.1574921113587,524.4472212261622L412.4886753111267,0L415.30373250915534,0L417.78760650741583,524.4472212261622L418.44997290695187,0L422.58976290405275,0L425.23922850219725,0L425.4048201020814,0L427.88869410034187,0L428.5510604998779,0L430.0413848988342,0L431.2005260980225,0L431.36611769790653,0L433.5188084963989,0L435.0091328953552,0L435.8370908947754,0L436.66504889419554,0L437.1618236938477,0L437.98978169326784,0L438.48655649291993,0L440.4736556915284,0L441.7983884906006,0L442.9575296897889,0L444.11667088897707,0L445.6069952879334,0L446.26936168746954,0L446.43495328735355,0L446.60054488723756,524.4472212261622L446.9317280870056,0L447.4285028866577,0L448.5876440858459,0L450.0779684848022,0L451.73388448364256,0L452.3962508831787,0L452.7274340829468,524.4472212261622L453.2242088825989,0L454.0521668820191,0L454.5489416816712,0L454.7145332815552,0L454.88012488143926,0L458.0263652792359,0L459.5166896781922,0L460.5102392774964,0L461.6693804766846,0L461.8349720765686,0L463.3252964755249,0L464.4844376747132,0L466.47153687332155,0L467.9618612722779,0L468.62422767181397,0L470.2801436706543,0L470.94251007019045,0L472.43283446914677,0L474.58552526763924,0L475.08230006729127,0L476.07584966659545,0L476.4070328663636,0L482.0371472624207,0L483.0306968617249,0L485.84575405975346,0L486.17693725952154,0L486.5081204592896,0L487.5016700585938,0L487.99844485824593,0L488.32962805801395,0L491.3102768559266,0L493.62855925430296,0L493.9597424540711,0L496.9403912519836,0L497.60275765151977,0L498.9274904505921,524.4472212261622L501.74254764862064,0L502.7360972479248,524.4472212261622L506.7102956451416,0L508.69739484375,0L508.8629864436341,0L509.35976124328613,524.4472212261622L509.52535284317014,524.4472212261622L509.8565360429383,0L510.1877192427063,0L510.85008564224245,0L511.5124520417786,0L512.3404100411988,0L512.6715932409668,0L515.1554672392273,0L520.7855816352844,0L521.4479480348206,0L521.7791312345886,0L522.6070892340088,0L524.0974136329651,0L525.4221464320374,0L526.0845128315735,0L527.7404288304139,0L528.071612030182,0L528.40279522995,0L528.568386829834,0L529.2307532293702,0L529.7275280290223,0L531.0522608280945,524.4472212261622L531.7146272276307,0L534.0329096260072,524.4472212261622L535.0264592253113,0L535.8544172247315,0L536.0200088246155,0L536.3511920243836,0L536.8479668240357,0L537.1791500238038,524.4472212261622L537.5103332235718,0L537.6759248234558,0L538.8350660226441,524.4472212261622L539.3318408222962,0L540.1597988217163,0L543.306039219513,0L544.9619552183533,0L545.9555048176575,0L546.9490544169616,524.4472212261622L547.6114208164978,0L547.7770124163818,0L549.5985200151061,0L549.7641116149903,0L552.2479856132508,0L553.9039016120911,0L555.3942260110474,0L558.2092832090759,0L561.1899320069886,0L561.3555236068727,0L561.6867068066407,0L563.342622805481,0L564.0049892050172,0L567.1512296028138,0L568.9727372015382,524.4472212261622L570.2974700006104,0L571.2910195999145,0L571.4566111997987,0L571.7877943995667,0L572.1189775993347,0L572.9469355987549,1048.8944424523245L577.0867255958557,0L577.2523171957398,0L578.9082331945801,524.4472212261622L579.2394163943482,0L580.0673743937683,0L582.3856567921448,0L583.379206391449,0L584.5383475906372,0L584.8695307904053,0L587.3534047886658,0L588.0157711882019,0L588.34695438797,0L590.4996451864624,0L592.4867443850709,0L594.4738435836792,524.4472212261622L594.6394351835633,0L594.8050267834474,0L596.1297595825196,0L597.1233091818237,524.4472212261622L599.9383663798524,0L600.9319159791565,0L601.0975075790406,0L602.4222403781129,524.4472212261622L603.415789977417,0L604.4093395767212,0L605.2372975761414,0L609.0459043734742,0L609.3770875732422,0L610.2050455726624,0L611.0330035720825,0L613.185694370575,0L614.3448355697632,0L616.8287095680237,0L618.8158087666321,0L619.3125835662842,0L621.6308659646606,0L621.7964575645448,524.4472212261622L622.1276407643128,0L627.4265719606019,0L627.5921635604859,0L627.7577551603699,0L628.9168963595582,0L630.7384039582826,524.4472212261622L633.222277956543,0L633.7190527561951,0L634.0502359559632,0L639.0179839524842,0L641.1706747509766,0L642.6609991499329,0L644.1513235488892,0L645.1448731481934,0L645.8072395477295,0L648.622296745758,0L648.9534799455262,524.4472212261622L649.1190715454102,0L649.2846631452942,0L651.1061707440185,0L654.0868195419312,524.4472212261622L656.9018767399598,524.4472212261622L658.2266095390321,0L662.0352163363648,0L663.5255407353211,0L663.8567239350891,0L664.1879071348573,0L664.8502735343934,0L665.0158651342774,0L666.8373727330018,0L667.3341475326539,0L668.6588803317261,524.4472212261622L669.1556551313782,0L670.6459795303346,524.4472212261622L673.1298535285949,0L673.7922199281311,0L674.1234031278992,0L676.6072771261597,0L678.7599679246521,0L682.5685747219849,0L685.0524487202454,0L685.2180403201295,0L686.3771815193177,0L687.2051395187378,0L688.033097518158,0L688.6954639176942,0L689.0266471174623,0L691.6761127156068,0L694.6567615135193,0L694.8223531134033,0L695.9814943125916,0L696.4782691122437,0L700.4524675094605,0L700.9492423091126,524.4472212261622L702.1083835083008,0L702.6051583079529,0L702.770749907837,0L703.101933107605,0L703.2675247074891,0L706.5793567051697,0L707.4073147045899,0L708.8976391035461,0L709.2288223033142,0L712.8718375007629,0L714.1965702998352,524.4472212261622L716.5148526982117,0L716.6804442980957,0L717.5084022975159,1048.8944424523245L718.336360296936,0L719.4955014961243,0L724.2976578927613,0L724.6288410925293,0L724.9600242922975,0L726.2847570913697,0L729.0998142893983,0L729.9277722888185,0L733.5707874862671,0L734.0675622859193,0L734.8955202853393,0L736.0546614845276,0L736.7170278840638,0L737.0482110838318,0L738.041760683136,0L738.20735228302,0L739.2009018823243,0L740.3600430815125,0L741.3535926808166,524.4472212261622L741.8503674804688,0L744.6654246784973,0L744.9966078782654,0L746.6525238771058,0L747.1492986767578,0L748.3084398759461,0L750.9579054740907,0L751.2890886738587,0L752.2826382731629,0L752.945004672699,0L753.2761878724672,0L755.5944702708435,0L758.4095274688722,0L760.3966266674805,0L761.7213594665528,0L764.7020082644653,0L765.0331914642335,0L765.3643746640015,0L765.8611494636536,0L766.3579242633057,0L769.1729814613343,0L770.9944890600586,0L771.1600806599427,0L773.3127714584351,0L778.2805194549561,0L778.6117026547241,0L782.585901051941,0L783.2482674514771,0L783.5794506512452,0L784.5730002505494,0L785.0697750502015,0L785.4009582499696,0L786.8912826489259,0L788.0504238481141,0L790.2031146466065,0L791.5278474456787,0L793.6805382441712,0L794.0117214439392,0L794.5084962435914,0L796.4955954421997,0L797.1579618417359,0L797.985919841156,524.4472212261622L798.317103040924,0L799.9730190397644,0L800.6353854393005,0L802.788076237793,0L805.4375418359375,0L806.2654998353577,0L807.4246410345459,0L811.5644310316468,0L811.7300226315308,0L813.0547554306031,0L814.7106714294434,0L816.0354042285157,0L817.1945454277039,0L817.8569118272401,0L819.6784194259644,0L820.6719690252686,0L821.6655186245728,0L825.3085338220216,0L827.1300414207459,0L827.9579994201661,0L829.4483238191224,0L829.6139154190064,0L831.6010146176147,0L833.4225222163391,0L833.9192970159913,0L835.5752130148317,524.4472212261622L835.7408046147157,0L835.9063962145997,0L843.3580182093812,0L844.1859762088013,0L844.3515678086853,0L846.0074838075257,0L858.0956705990601,0L859.9171781977844,0L860.0827697976684,0L860.4139529974365,0L860.7451361972047,0L861.2419109968567,0L861.4075025967408,0L861.7386857965088,0L865.5472925938417,0L866.3752505932617,0L866.8720253929138,0L868.1967581919861,0L870.0182657907104,0L871.5085901896667,0L872.0053649893189,0L872.1709565892029,0L874.6548305874634,0L877.304296185608,0L878.2978457849122,0L878.9602121844483,0L880.4505365834045,0L880.7817197831728,0L882.2720441821291,0L882.9344105816651,0L883.9279601809694,0L884.7559181803895,0L889.0612997773744,0L890.5516241763305,0L893.0354981745911,0L894.1946393737794,0L895.1881889730835,0L895.8505553726197,0L896.0161469725037,0L899.1623873703004,0L899.3279789701844,0L899.6591621699524,524.4472212261622L900.6527117692567,0L905.6204597657777,0L906.6140093650819,0L907.276375764618,0L907.77315056427,0L909.0978833633424,0L909.4290665631104,0L912.2441237611389,0L912.409715361023,0L915.5559557588196,0L915.7215473587038,0L916.2183221583558,0L917.7086465573121,0L919.0333793563844,0L919.3645625561525,0L919.5301541560365,0L922.0140281542969,0L923.6699441531372,0L924.1667189527894,0L925.9882265515138,524.4472212261622L926.4850013511658,0L926.8161845509338,0L927.1473677507018,0L929.1344669493104,0L931.9495241473388,0L934.4333981455994,0L935.4269477449036,0L936.5860889440918,0L937.9108217431641,0L938.5731881427002,0L939.7323293418884,0L939.8979209417726,0L940.0635125416566,0L941.7194285404969,0L946.0248101374818,0L946.8527681369019,0L949.5022337350465,0L950.3301917344666,524.4472212261622L951.3237413337708,0L951.9861077333069,0L952.1516993331909,0L953.4764321322632,0L953.9732069319152,524.4472212261622L954.1387985317995,0L954.4699817315675,0L954.9667565312195,0L956.4570809301758,0L957.1194473297119,0L957.7818137292481,0L958.2785885289002,0L958.4441801287842,0L959.4377297280885,0L960.4312793273925,0L960.7624625271608,0L961.2592373268128,0L967.0549433227538,0L969.0420425213624,0L972.188282919159,0L972.5194661189271,0L975.1689317170716,0L975.6657065167236,0L975.9968897164919,0L976.1624813163759,0L979.3087217141725,0L983.2829201113892,0L983.7796949110412,0L985.9323857095338,0L987.2571185086059,0L988.7474429075622,0L989.2442177072145,0L989.5754009069825,0L989.7409925068665,0L992.0592749052429,0L993.3840077043152,0L997.0270229017639,0L998.0205725010682,0L998.5173473007202,0L999.6764884999085,0L1001.829179298401,0L1002.160362498169,0L1002.325954098053,0L1003.4850952972413,0L1006.4657440951539,0L1009.1152096932985,0L1010.2743508924866,0L1011.1023088919069,0L1011.2679004917909,0L1012.261450091095,0L1014.4141408895875,0L1014.7453240893556,0L1015.7388736886596,0L1020.0442552856446,0L1020.8722132850648,0L1023.0249040835572,0L1023.6872704830932,0L1026.6679192810059,0L1027.9926520800782,0L1031.8012588774109,0L1032.298033677063,0L1032.4636252769471,0L1033.1259916764832,0L1033.2915832763672,0L1033.9539496759032,0L1037.5969648733521,0L1041.4055716706848,0L1043.5582624691772,0L1046.2077280673218,0L1048.0292356660461,0L1050.6787012641907,0L1051.1754760638428,0L1052.9969836625671,0L1053.1625752624514,0L1053.6593500621034,0L1056.474407260132,0L1057.136773659668,0L1060.4486056573487,0L1060.7797888571167,0L1063.0980712554933,0L1063.9260292549134,0L1066.24431165329,0L1066.409903253174,0L1066.741086452942,0L1067.5690444523623,0L1072.205609249115,524.4472212261622L1073.6959336480713,0L1074.8550748472596,0L1075.5174412467957,0L1076.5109908461,0L1077.504540445404,0L1078.3324984448243,0L1078.8292732444763,0L1079.1604564442443,0L1081.644330442505,0L1083.1346548414613,0L1084.4593876405336,0L1087.274444838562,0L1088.1024028379823,0L1088.4335860377503,0L1090.4206852363586,0L1090.7518684361266,0L1091.745418035431,0L1093.7325172340393,0L1094.5604752334596,0L1096.2163912322999,0L1097.8723072311402,0L1100.6873644291686,524.4472212261622L1102.508872027893,0L1102.8400552276612,0L1103.5024216271972,0L1105.4895208258056,0L1105.9862956254578,0L1112.7755512207032,0L1113.2723260203552,0L1113.9346924198915,0L1116.2529748182678,0L1118.0744824169924,0L1119.2336236161805,0L1120.3927648153688,0L1122.048680814209,0L1122.5454556138611,0L1123.3734136132814,0L1124.2013716127015,0L1125.1949212120057,0L1127.182020410614,0L1127.347612010498,0L1130.1626692085267,0L1130.6594440081788,0L1131.818585207367,0L1133.8056844059754,0L1136.289558404236,0L1136.620741604004,0L1137.7798828031923,0L1139.4357988020327,0L1140.7605316011047,0L1141.091714800873,0L1141.422898000641,0L1142.250856000061,0L1143.7411803990174,524.4472212261622L1145.3970963978577,0L1145.5626879977417,0L1147.218603996582,0L1147.8809703961183,0L1148.0465619960023,0L1151.192802393799,0L1152.020760393219,0L1152.351943592987,0L1153.0143099925233,0L1154.5046343914796,0L1157.485283189392,0L1160.7971151870727,0L1161.625073186493,0L1163.1153975854493,0L1164.1089471847533,0L1164.2745387846373,0L1164.4401303845216,0L1164.9369051841736,0L1165.4336799838256,0L1169.0766951812743,0L1171.891752379303,0L1172.057343979187,0L1172.7197103787232,0L1173.5476683781433,0L1174.7068095773316,0L1176.197133976288,0L1176.528317176056,0L1178.1842331748962,0L1179.1777827742005,0L1179.5089659739685,0L1180.5025155732728,0L1180.8336987730409,0L1181.1648819728089,0L1183.1519811714174,0L1183.4831643711855,0L1183.8143475709535,0L1187.6229543682862,0L1189.1132787672425,0L1189.6100535668947,0L1192.2595191650391,0L1193.9154351638795,0L1194.0810267637635,0L1194.4122099635317,0L1195.4057595628358,0L1196.39930916214,0L1197.5584503613281,0L1198.3864083607484,0L1199.5455495599367,524.4472212261622L1200.5390991592408,0L1202.6917899577331,0L1203.8509311569214,0L1206.997171554718,0L1210.3090035523987,0L1210.8057783520508,0L1211.468144751587,0L1211.633736351471,0L1212.7928775506593,0L1215.6079347486877,0L1217.429442347412,0L1219.2509499461364,0L1220.4100911453247,0L1221.403640744629,0L1225.3778391418457,0L1229.1864459391784,0L1233.1606443363953,0L1234.4853771354676,0L1235.1477435350037,0L1237.300434333496,0L1239.1219419322206,0L1239.7843083317566,0L1241.109041130829,0L1241.274632730713,0L1241.9369991302492,0L1243.4273235292055,0L1243.5929151290895,0L1245.2488311279299,0L1245.4144227278139,0L1245.5800143276979,0L1246.9047471267702,0L1247.5671135263062,0L1250.2165791244508,0L1254.1907775216675,0L1254.8531439212038,0L1255.1843271209718,0L1255.3499187208558,0L1255.8466935205079,0L1257.3370179194642,0L1257.5026095193482,0L1258.9929339183045,0L1259.4897087179568,0L1261.145624716797,0L1261.9735827162172,0L1267.9348803120424,0L1269.4252047109985,0L1269.7563879107668,0L1270.4187543103028,0L1271.412303909607,0L1271.9090787092591,0L1273.0682199084474,0L1273.5649947080994,0L1274.3929527075195,0L1274.8897275071718,0L1276.214460306244,0L1276.87682670578,0L1277.5391931053161,0L1279.1951091041565,0L1279.3607007040405,0L1281.347799902649,0L1282.010166302185,0L1283.1693075013734,0L1283.8316739009094,0L1285.6531814996338,0L1287.6402806982421,0L1290.2897462963867,0L1294.4295362934874,0L1296.913410291748,0L1298.2381430908204,0L1299.2316926901244,0L1299.8940590896607,0L1300.5564254891967,0L1301.881158288269,0L1302.8747078875733,0L1303.0402994874573,0L1305.855356685486,0L1307.3456810844423,0L1308.3392306837466,0L1309.6639634828186,0L1310.160738282471,0L1310.823104682007,0L1312.4790206808473,0L1313.8037534799196,0L1314.3005282795716,0L1316.6188106779482,0L1317.2811770774842,0L1318.6059098765566,0L1319.1026846762086,0L1320.0962342755129,0L1323.0768830734255,0L1323.4080662731935,0L1326.3887150711062,0L1327.0510814706422,0L1327.5478562702942,0L1330.0317302685548,0L1330.5285050682069,0L1331.190871467743,0L1332.3500126669312,0L1334.5027034654236,0L1335.4962530647279,0L1337.8145354631042,0L1339.8016346617128,0L1340.9607758609009,0L1342.2855086599732,0L1343.6102414590455,0L1343.7758330589295,0L1344.6037910583498,0L1345.2661574578858,0L1347.4188482563782,0L1348.0812146559144,0L1350.3994970542908,0L1352.3865962528992,0L1352.5521878527832,0L1353.7113290519715,0L1355.0360618510438,0L1356.0296114503478,0L1357.0231610496521,0L1358.1823022488404,0L1358.5134854486084,0L1360.0038098475648,0L1360.3349930473328,0L1360.5005846472168,0L1363.6468250450134,0L1364.1435998446655,0L1365.6339242436218,0L1367.7866150421144,0L1369.6081226408387,0L1370.1048974404907,0L1371.760813439331,0L1374.4102790374757,0L1376.2317866362,0L1376.7285614358523,0L1379.2124354341126,0L1380.868351432953,0L1381.033943032837,0L1381.8619010322573,0L1382.0274926321413,0L1382.8554506315613,0L1383.1866338313296,0L1383.8490002308656,0L1384.0145918307496,0L1384.1801834306336,0L1386.6640574288942,0L1387.8231986280823,0L1387.9887902279663,0L1388.6511566275026,0L1388.9823398272706,0L1390.472664226227,0L1391.135030625763,0L1391.6318054254152,0L1395.9371870224,0L1396.102778622284,0L1397.5931030212403,0L1398.0898778208925,0L1398.7522442204286,0L1399.2490190200806,0L1400.904935018921,0L1401.070526618805,0L1401.236118218689,0L1401.4017098185732,0L1402.2296678179932,0L1403.2232174172975,0L1403.8855838168336,0L1404.2167670166016,0L1406.8662326147462,0L1407.8597822140503,0L1408.0253738139343,0L1409.3501066130066,0L1410.3436562123109,0L1411.171614211731,0L1412.4963470108032,0L1413.6554882099915,0L1415.3114042088318,0L1418.2920530067445,0L1419.6167858058166,0L1423.4253926031495,0L1424.5845338023375,0L1425.5780834016418,0L1426.0748582012939,0L1431.208197797699,0L1431.373789397583,0L1434.0232549957277,0L1434.1888465956117,0L1435.844762594452,0L1436.341537394104,0L1436.672720593872,2097.788884904649L1438.4942281925967,0L1439.4877777919007,0L1439.984552591553,0L1440.646918991089,0L1443.2963845892336,0L1443.6275677890017,0L1443.7931593888857,0L1444.4555257884217,0L1444.952300588074,0L1445.283483787842,0L1445.780258587494,0L1447.6017661862184,0L1448.2641325857546,0L1450.085640184479,0L1450.582414984131,0L1453.8942469818116,0L1455.218979780884,0L1456.8748957797243,0L1457.0404873796083,0L1458.8619949783326,0L1462.6706017756653,0L1463.4985597750856,0L1466.313616973114,0L1469.1286741711426,0L1470.122223770447,0L1470.453406970215,0L1473.5996473680116,0L1473.7652389678956,0L1474.4276053674316,0L1475.089971766968,0L1478.0706205648803,0L1479.0641701641846,0L1479.2297617640686,0L1486.184608959198,0L1487.5093417582702,0L1488.8340745573425,0L1488.9996661572266,0L1490.1588073564149,0" fill="none"></path></g></g></g></g></g></g><g transform="translate(49, 377)" clip-path="url(#clip_1)"><clipPath id="clip_1"><rect width="1655" height="22"></rect></clipPath><g><g><line x1="0" y1="0" x2="0" y2="5" style="visibility: inherit;" fill="rgb(0, 0, 0)" stroke="rgb(204, 204, 204)" stroke-width="1px"></line><line x1="165.59159988403323" y1="0" x2="165.59159988403323" y2="5" style="visibility: inherit;" fill="rgb(0, 0, 0)" stroke="rgb(204, 204, 204)" stroke-width="1px"></line><line x1="331.18319976806646" y1="0" x2="331.18319976806646" y2="5" style="visibility: inherit;" fill="rgb(0, 0, 0)" stroke="rgb(204, 204, 204)" stroke-width="1px"></line><line x1="496.7747996520996" y1="0" x2="496.7747996520996" y2="5" style="visibility: inherit;" fill="rgb(0, 0, 0)" stroke="rgb(204, 204, 204)" stroke-width="1px"></line><line x1="662.3663995361329" y1="0" x2="662.3663995361329" y2="5" style="visibility: inherit;" fill="rgb(0, 0, 0)" stroke="rgb(204, 204, 204)" stroke-width="1px"></line><line x1="827.9579994201661" y1="0" x2="827.9579994201661" y2="5" style="visibility: inherit;" fill="rgb(0, 0, 0)" stroke="rgb(204, 204, 204)" stroke-width="1px"></line><line x1="993.5495993041992" y1="0" x2="993.5495993041992" y2="5" style="visibility: inherit;" fill="rgb(0, 0, 0)" stroke="rgb(204, 204, 204)" stroke-width="1px"></line><line x1="1159.1411991882323" y1="0" x2="1159.1411991882323" y2="5" style="visibility: inherit;" fill="rgb(0, 0, 0)" stroke="rgb(204, 204, 204)" stroke-width="1px"></line><line x1="1324.7327990722658" y1="0" x2="1324.7327990722658" y2="5" style="visibility: inherit;" fill="rgb(0, 0, 0)" stroke="rgb(204, 204, 204)" stroke-width="1px"></line><line x1="1490.3243989562989" y1="0" x2="1490.3243989562989" y2="5" style="visibility: inherit;" fill="rgb(0, 0, 0)" stroke="rgb(204, 204, 204)" stroke-width="1px"></line><line x1="1655.9159988403321" y1="0" x2="1655.9159988403321" y2="5" style="visibility: inherit;" fill="rgb(0, 0, 0)" stroke="rgb(204, 204, 204)" stroke-width="1px"></line></g><g transform="translate(0, 8)"><text style="text-anchor: middle; visibility: hidden; font-family: Roboto, sans-serif; font-size: 12px; font-weight: 200;" x="0" y="0" dx="0em" dy="0.95em" fill="rgb(33, 33, 33)" stroke="none" stroke-width="1px">-1k</text><text style="text-anchor: middle; visibility: inherit; font-family: Roboto, sans-serif; font-size: 12px; font-weight: 200;" x="165.59159988403323" y="0" dx="0em" dy="0.95em" fill="rgb(33, 33, 33)" stroke="none" stroke-width="1px">0</text><text style="text-anchor: middle; visibility: inherit; font-family: Roboto, sans-serif; font-size: 12px; font-weight: 200;" x="331.18319976806646" y="0" dx="0em" dy="0.95em" fill="rgb(33, 33, 33)" stroke="none" stroke-width="1px">1k</text><text style="text-anchor: middle; visibility: inherit; font-family: Roboto, sans-serif; font-size: 12px; font-weight: 200;" x="496.7747996520996" y="0" dx="0em" dy="0.95em" fill="rgb(33, 33, 33)" stroke="none" stroke-width="1px">2k</text><text style="text-anchor: middle; visibility: inherit; font-family: Roboto, sans-serif; font-size: 12px; font-weight: 200;" x="662.3663995361329" y="0" dx="0em" dy="0.95em" fill="rgb(33, 33, 33)" stroke="none" stroke-width="1px">3k</text><text style="text-anchor: middle; visibility: inherit; font-family: Roboto, sans-serif; font-size: 12px; font-weight: 200;" x="827.9579994201661" y="0" dx="0em" dy="0.95em" fill="rgb(33, 33, 33)" stroke="none" stroke-width="1px">4k</text><text style="text-anchor: middle; visibility: inherit; font-family: Roboto, sans-serif; font-size: 12px; font-weight: 200;" x="993.5495993041992" y="0" dx="0em" dy="0.95em" fill="rgb(33, 33, 33)" stroke="none" stroke-width="1px">5k</text><text style="text-anchor: middle; visibility: inherit; font-family: Roboto, sans-serif; font-size: 12px; font-weight: 200;" x="1159.1411991882323" y="0" dx="0em" dy="0.95em" fill="rgb(33, 33, 33)" stroke="none" stroke-width="1px">6k</text><text style="text-anchor: middle; visibility: inherit; font-family: Roboto, sans-serif; font-size: 12px; font-weight: 200;" x="1324.7327990722658" y="0" dx="0em" dy="0.95em" fill="rgb(33, 33, 33)" stroke="none" stroke-width="1px">7k</text><text style="text-anchor: middle; visibility: inherit; font-family: Roboto, sans-serif; font-size: 12px; font-weight: 200;" x="1490.3243989562989" y="0" dx="0em" dy="0.95em" fill="rgb(33, 33, 33)" stroke="none" stroke-width="1px">8k</text><text style="text-anchor: middle; visibility: hidden; font-family: Roboto, sans-serif; font-size: 12px; font-weight: 200;" x="1655.9159988403321" y="0" dx="0em" dy="0.95em" fill="rgb(33, 33, 33)" stroke="none" stroke-width="1px">9k</text></g><line x1="0" y1="0" x2="1655.9159988403321" y2="0" fill="rgb(0, 0, 0)" stroke="rgb(204, 204, 204)" stroke-width="1px"></line></g></g></g></g></svg>