<svg viewBox="0 0 1705.9000244140625 400" xmlns="http://www.w3.org/2000/svg"><g><g><g><g><g><line x1="49.98400115966797" y1="377.6019992828369" x2="44.98400115966797" y2="377.6019992828369" style="visibility: inherit;" fill="rgb(0, 0, 0)" stroke="rgb(204, 204, 204)" stroke-width="1px"></line><line x1="49.98400115966797" y1="339.84179935455325" x2="44.98400115966797" y2="339.84179935455325" style="visibility: inherit;" fill="rgb(0, 0, 0)" stroke="rgb(204, 204, 204)" stroke-width="1px"></line><line x1="49.98400115966797" y1="302.0815994262695" x2="44.98400115966797" y2="302.0815994262695" style="visibility: inherit;" fill="rgb(0, 0, 0)" stroke="rgb(204, 204, 204)" stroke-width="1px"></line><line x1="49.98400115966797" y1="264.32139949798585" x2="44.98400115966797" y2="264.32139949798585" style="visibility: inherit;" fill="rgb(0, 0, 0)" stroke="rgb(204, 204, 204)" stroke-width="1px"></line><line x1="49.98400115966797" y1="226.56119956970215" x2="44.98400115966797" y2="226.56119956970215" style="visibility: inherit;" fill="rgb(0, 0, 0)" stroke="rgb(204, 204, 204)" stroke-width="1px"></line><line x1="49.98400115966797" y1="188.80099964141846" x2="44.98400115966797" y2="188.80099964141846" style="visibility: inherit;" fill="rgb(0, 0, 0)" stroke="rgb(204, 204, 204)" stroke-width="1px"></line><line x1="49.98400115966797" y1="151.04079971313476" x2="44.98400115966797" y2="151.04079971313476" style="visibility: inherit;" fill="rgb(0, 0, 0)" stroke="rgb(204, 204, 204)" stroke-width="1px"></line><line x1="49.98400115966797" y1="113.28059978485109" x2="44.98400115966797" y2="113.28059978485109" style="visibility: inherit;" fill="rgb(0, 0, 0)" stroke="rgb(204, 204, 204)" stroke-width="1px"></line><line x1="49.98400115966797" y1="75.52039985656741" x2="44.98400115966797" y2="75.52039985656741" style="visibility: inherit;" fill="rgb(0, 0, 0)" stroke="rgb(204, 204, 204)" stroke-width="1px"></line><line x1="49.98400115966797" y1="37.76019992828368" x2="44.98400115966797" y2="37.76019992828368" style="visibility: inherit;" fill="rgb(0, 0, 0)" stroke="rgb(204, 204, 204)" stroke-width="1px"></line><line x1="49.98400115966797" y1="0" x2="44.98400115966797" y2="0" style="visibility: inherit;" fill="rgb(0, 0, 0)" stroke="rgb(204, 204, 204)" stroke-width="1px"></line></g><g transform="translate(39.98400115966797, 0)"><text style="text-anchor: end; visibility: hidden; font-family: Roboto, sans-serif; font-size: 12px; font-weight: 200;" x="0" y="377.6019992828369" dx="0em" dy="0.3em" fill="rgb(33, 33, 33)" stroke="none" stroke-width="1px">-0.2</text><text style="text-anchor: end; visibility: inherit; font-family: Roboto, sans-serif; font-size: 12px; font-weight: 200;" x="0" y="339.84179935455325" dx="0em" dy="0.3em" fill="rgb(33, 33, 33)" stroke="none" stroke-width="1px">0</text><text style="text-anchor: end; visibility: inherit; font-family: Roboto, sans-serif; font-size: 12px; font-weight: 200;" x="0" y="302.0815994262695" dx="0em" dy="0.3em" fill="rgb(33, 33, 33)" stroke="none" stroke-width="1px">0.2</text><text style="text-anchor: end; visibility: inherit; font-family: Roboto, sans-serif; font-size: 12px; font-weight: 200;" x="0" y="264.32139949798585" dx="0em" dy="0.3em" fill="rgb(33, 33, 33)" stroke="none" stroke-width="1px">0.4</text><text style="text-anchor: end; visibility: inherit; font-family: Roboto, sans-serif; font-size: 12px; font-weight: 200;" x="0" y="226.56119956970215" dx="0em" dy="0.3em" fill="rgb(33, 33, 33)" stroke="none" stroke-width="1px">0.6</text><text style="text-anchor: end; visibility: inherit; font-family: Roboto, sans-serif; font-size: 12px; font-weight: 200;" x="0" y="188.80099964141846" dx="0em" dy="0.3em" fill="rgb(33, 33, 33)" stroke="none" stroke-width="1px">0.8</text><text style="text-anchor: end; visibility: inherit; font-family: Roboto, sans-serif; font-size: 12px; font-weight: 200;" x="0" y="151.04079971313476" dx="0em" dy="0.3em" fill="rgb(33, 33, 33)" stroke="none" stroke-width="1px">1</text><text style="text-anchor: end; visibility: inherit; font-family: Roboto, sans-serif; font-size: 12px; font-weight: 200;" x="0" y="113.28059978485109" dx="0em" dy="0.3em" fill="rgb(33, 33, 33)" stroke="none" stroke-width="1px">1.2</text><text style="text-anchor: end; visibility: inherit; font-family: Roboto, sans-serif; font-size: 12px; font-weight: 200;" x="0" y="75.52039985656741" dx="0em" dy="0.3em" fill="rgb(33, 33, 33)" stroke="none" stroke-width="1px">1.4</text><text style="text-anchor: end; visibility: inherit; font-family: Roboto, sans-serif; font-size: 12px; font-weight: 200;" x="0" y="37.76019992828368" dx="0em" dy="0.3em" fill="rgb(33, 33, 33)" stroke="none" stroke-width="1px">1.6</text><text style="text-anchor: end; visibility: hidden; font-family: Roboto, sans-serif; font-size: 12px; font-weight: 200;" x="0" y="0" dx="0em" dy="0.3em" fill="rgb(33, 33, 33)" stroke="none" stroke-width="1px">1.8</text></g><line x1="49.98400115966797" y1="0" x2="49.98400115966797" y2="377.6019992828369" fill="rgb(0, 0, 0)" stroke="rgb(204, 204, 204)" stroke-width="1px"></line></g></g><g transform="translate(49, 0)" clip-path="url(#clip_0)"><clipPath id="clip_0"><rect width="1655" height="377"></rect></clipPath><g><g><g><line x1="0" y1="0" x2="0" y2="377.6019992828369" fill="rgb(0, 0, 0)" stroke="rgb(66, 66, 66)" stroke-width="1px" opacity="0.25"></line><line x1="165.59159988403323" y1="0" x2="165.59159988403323" y2="377.6019992828369" fill="rgb(0, 0, 0)" stroke="rgb(66, 66, 66)" stroke-width="1px" opacity="0.25"></line><line x1="331.18319976806646" y1="0" x2="331.18319976806646" y2="377.6019992828369" fill="rgb(0, 0, 0)" stroke="rgb(66, 66, 66)" stroke-width="1px" opacity="0.25"></line><line x1="496.7747996520996" y1="0" x2="496.7747996520996" y2="377.6019992828369" fill="rgb(0, 0, 0)" stroke="rgb(66, 66, 66)" stroke-width="1px" opacity="0.25"></line><line x1="662.3663995361329" y1="0" x2="662.3663995361329" y2="377.6019992828369" fill="rgb(0, 0, 0)" stroke="rgb(66, 66, 66)" stroke-width="1px" opacity="0.25"></line><line x1="827.9579994201661" y1="0" x2="827.9579994201661" y2="377.6019992828369" fill="rgb(0, 0, 0)" stroke="rgb(66, 66, 66)" stroke-width="1px" opacity="0.25"></line><line x1="993.5495993041992" y1="0" x2="993.5495993041992" y2="377.6019992828369" fill="rgb(0, 0, 0)" stroke="rgb(66, 66, 66)" stroke-width="1px" opacity="0.25"></line><line x1="1159.1411991882323" y1="0" x2="1159.1411991882323" y2="377.6019992828369" fill="rgb(0, 0, 0)" stroke="rgb(66, 66, 66)" stroke-width="1px" opacity="0.25"></line><line x1="1324.7327990722658" y1="0" x2="1324.7327990722658" y2="377.6019992828369" fill="rgb(0, 0, 0)" stroke="rgb(66, 66, 66)" stroke-width="1px" opacity="0.25"></line><line x1="1490.3243989562989" y1="0" x2="1490.3243989562989" y2="377.6019992828369" fill="rgb(0, 0, 0)" stroke="rgb(66, 66, 66)" stroke-width="1px" opacity="0.25"></line><line x1="1655.9159988403321" y1="0" x2="1655.9159988403321" y2="377.6019992828369" fill="rgb(0, 0, 0)" stroke="rgb(66, 66, 66)" stroke-width="1px" opacity="0.25"></line></g><g><line x1="0" y1="377.6019992828369" x2="1655.9159988403321" y2="377.6019992828369" fill="rgb(0, 0, 0)" stroke="rgb(66, 66, 66)" stroke-width="1px" opacity="0.25"></line><line x1="0" y1="339.84179935455325" x2="1655.9159988403321" y2="339.84179935455325" fill="rgb(0, 0, 0)" stroke="rgb(66, 66, 66)" stroke-width="1px" opacity="0.25"></line><line x1="0" y1="302.0815994262695" x2="1655.9159988403321" y2="302.0815994262695" fill="rgb(0, 0, 0)" stroke="rgb(66, 66, 66)" stroke-width="1px" opacity="0.25"></line><line x1="0" y1="264.32139949798585" x2="1655.9159988403321" y2="264.32139949798585" fill="rgb(0, 0, 0)" stroke="rgb(66, 66, 66)" stroke-width="1px" opacity="0.25"></line><line x1="0" y1="226.56119956970215" x2="1655.9159988403321" y2="226.56119956970215" fill="rgb(0, 0, 0)" stroke="rgb(66, 66, 66)" stroke-width="1px" opacity="0.25"></line><line x1="0" y1="188.80099964141846" x2="1655.9159988403321" y2="188.80099964141846" fill="rgb(0, 0, 0)" stroke="rgb(66, 66, 66)" stroke-width="1px" opacity="0.25"></line><line x1="0" y1="151.04079971313476" x2="1655.9159988403321" y2="151.04079971313476" fill="rgb(0, 0, 0)" stroke="rgb(66, 66, 66)" stroke-width="1px" opacity="0.25"></line><line x1="0" y1="113.28059978485109" x2="1655.9159988403321" y2="113.28059978485109" fill="rgb(0, 0, 0)" stroke="rgb(66, 66, 66)" stroke-width="1px" opacity="0.25"></line><line x1="0" y1="75.52039985656741" x2="1655.9159988403321" y2="75.52039985656741" fill="rgb(0, 0, 0)" stroke="rgb(66, 66, 66)" stroke-width="1px" opacity="0.25"></line><line x1="0" y1="37.76019992828368" x2="1655.9159988403321" y2="37.76019992828368" fill="rgb(0, 0, 0)" stroke="rgb(66, 66, 66)" stroke-width="1px" opacity="0.25"></line><line x1="0" y1="0" x2="1655.9159988403321" y2="0" fill="rgb(0, 0, 0)" stroke="rgb(66, 66, 66)" stroke-width="1px" opacity="0.25"></line></g></g></g><g><g><line x1="0" y1="339.84179935455325" x2="1655.9159988403321" y2="339.84179935455325" fill="rgb(0, 0, 0)" stroke="rgb(153, 153, 153)" stroke-width="1.5px"></line></g></g><g><g><line x1="165.59159988403323" y1="0" x2="165.59159988403323" y2="377.6019992828369" fill="rgb(0, 0, 0)" stroke="rgb(153, 153, 153)" stroke-width="1.5px"></line></g></g><g><g><g><g><g><path style="fill: none;" stroke="rgb(255, 112, 67)" stroke-width="2px" d="M262.6282774160767,-1.149889408704539L262.7938690159607,4.038385836000495L265.27774301422124,9.034141260064498L268.2583918121338,13.745417863572408L268.5895750119019,17.899365142937288L270.57667421051025,12.158260483999882L271.7358154096985,16.830277554609648L271.90140700958256,18.532748173192065L272.2325902093506,7.250370460615352L272.7293650090027,10.27633369226256L273.06054820877074,14.067747936651875L275.04764740737915,17.86435700122837L276.7035634062195,16.490952712186083L278.6906626048279,20.261445053402472L279.5186206042481,24.404005764357947L283.82400220123293,25.234843514988967L284.4863686007691,29.4368122558496L285.1487350003052,31.62176858111247L285.31432660018925,35.64197114979895L286.47346779937743,35.30224402586054L287.96379219833375,39.04647939724213L288.6261585978699,42.79590504768718L289.288524997406,46.39154874076701L290.11648299682616,49.41099181601277L290.7788493963623,52.74493742251948L292.2691737953186,56.021505904616866L292.93154019485473,43.79537452915388L293.2627233946228,46.95773065894106L293.5939065943909,50.04803357800035L294.7530477935791,53.325288040931056L295.5810057929993,56.26870194417135L295.91218899276737,58.726880436036254L296.74014699218753,60.629471677072935L297.0713301919556,63.374896750632765L297.7336965914917,62.43983810807979L298.39606299102786,64.90001270047672L299.38961259033204,63.85241533214823L299.5552041902161,65.69069785249705L303.36381098754885,61.10217981502977L304.026177387085,63.81117016051223L309.49070018325807,66.6786585486485L310.6498413824463,69.42224125700015L311.64339098175054,70.18739167252055L313.96167338012697,72.67247704086999L314.6240397796631,71.73806820210308L315.78318097885136,74.24550860550013L316.1143641786194,76.65026069457772L317.1079137779236,79.0778889489562L317.4390969776917,66.99933077189749L319.7573793760681,68.50666362749533L319.9229709759522,70.67827932973755L321.5788869747925,72.97451113952579L322.0756617744446,71.97249937813271L323.56598617340086,73.49929237076316L324.228352572937,74.01103040866128L324.89071897247317,75.32622472328481L326.3810433714295,77.60679765950918L326.5466349713135,79.68449954698393L327.5401845706177,81.85381043279753L327.70577617050174,84.12587687087294L328.5337341699219,86.11718962882134L330.5208333685303,88.2378389433973L331.5143829678345,90.14929024158386L332.0111577674866,92.2111498054155L333.5014821664429,93.63829420338726L335.3229897651673,95.66325124256967L338.46923016296387,92.8170786126177L340.6219209614563,89.44760676576168L341.6154705607605,91.513385227855L342.1122453604126,93.20213229712537L342.4434285601807,87.06553225249537L343.10579495971683,86.26464773187519L344.09934455902106,88.29149185742068L344.9273025584412,90.21921261233054L346.58321855728155,91.98546213448003L347.57676815658573,92.49702367902277L348.4047261560059,90.98838813596885L350.0606421548462,91.7400503488341L350.8886001542664,93.54996929413791L357.0154893499756,95.04932275559464L357.6778557495117,92.94821249395673L357.8434473493958,94.62949401657362L358.0090389492798,95.93684631260301L360.9896877471924,96.8499911545382L362.9767869458008,98.56441722199506L363.14237854568483,100.32975922313983L364.13592814498907,102.07065113348943L365.29506934417725,103.0638202338403L369.60045094116214,103.9489055929537L369.93163414093016,105.63467618676302L371.5875501397705,106.66706762924817L373.4090577384949,108.29899365208813L373.90583253814697,109.88917323996117L374.4026073377991,111.48636245729435L377.71443933547977,113.04603712212638L378.70798893478394,114.39161868128852L379.8671301339722,113.36498354457791L380.8606797332764,114.86756990362822L382.51659573211674,116.36201210557331L383.5101453314209,117.84667301338077L384.006920131073,119.30685771466455L385.8284277297974,118.18929895277704L386.3252025294495,118.59918013385199L386.82197732910157,119.96546611449702L386.9875689289856,121.39573864901517L394.9359657234192,122.80893840602782L395.43274052307135,123.84063311624884L395.92951532272343,124.31751572515172L396.09510692260744,125.66448145379532L399.7381221200562,126.95112705037417L401.7252213186646,128.29974129596818L402.0564045184326,129.54778947817672L402.71877091796875,130.70509236894284L403.3811373175049,127.91188731992509L404.043503717041,129.22838437316327L408.1832937141419,129.77911904184307L408.34888531402595,130.5122338419672L410.1703929127503,131.52753806029185L411.49512571182254,132.70160379761836L412.1574921113587,131.34874388186503L412.4886753111267,132.384873465994L415.30373250915534,133.49742868510117L417.78760650741583,133.39863568440165L418.44997290695187,133.81798494942652L422.58976290405275,134.22232500615664L425.23922850219725,134.21250953882813L425.4048201020814,135.353456104661L427.88869410034187,136.522535793194L428.5510604998779,137.57531504659804L430.0413848988342,138.26702208877145L431.2005260980225,138.74684393191146L431.36611769790653,139.84863938317727L433.5188084963989,140.98368720961165L435.0091328953552,141.93109600742773L435.8370908947754,142.6042565100701L436.66504889419554,143.70521525782328L437.1618236938477,144.77872609836567L437.98978169326784,145.83536541308015L438.48655649291993,145.12218197540554L440.4736556915284,146.0845993978369L441.7983884906006,146.963792253894L442.9575296897889,147.97497189340248L444.11667088897707,149.00706229455253L445.6069952879334,149.96302157865992L446.26936168746954,150.92760153272633L446.43495328735355,151.8346336947038L446.60054488723756,150.2592200706435L446.9317280870056,151.25721212255993L447.4285028866577,151.90130550272178L448.5876440858459,152.8853882389615L450.0779684848022,153.82985127031824L451.73388448364256,154.4554536204021L452.3962508831787,155.39576214252554L452.7274340829468,152.81474590186875L453.2242088825989,153.61875916154375L454.0521668820191,154.56986105343333L454.5489416816712,155.51579920466605L454.7145332815552,156.45113946044657L454.88012488143926,157.38177853449514L458.0263652792359,158.29472905208257L459.5166896781922,158.33694077648806L460.5102392774964,159.21660146334702L461.6693804766846,160.08616757387452L461.8349720765686,160.69248704810784L463.3252964755249,161.57995759525758L464.4844376747132,162.4245039657066L466.47153687332155,163.2585050800479L467.9618612722779,163.35297835254224L468.62422767181397,163.83641416959478L470.2801436706543,164.6751217429088L470.94251007019045,165.2191401536913L472.43283446914677,165.81464894840144L474.58552526763924,166.64712376384227L475.08230006729127,167.45342745323583L476.07584966659545,168.22444911278822L476.4070328663636,169.03163275854675L482.0371472624207,169.7342316615921L483.0306968617249,170.46127653635006L485.84575405975346,171.046108181108L486.17693725952154,171.8310415794209L486.5081204592896,171.74801398333952L487.5016700585938,172.0602653034181L487.99844485824593,172.83499515214456L488.32962805801395,173.6038876870296L491.3102768559266,174.32848923689207L493.62855925430296,175.08559233708888L493.9597424540711,175.83362821190556L496.9403912519836,176.55554740938416L497.60275765151977,177.26818628752483L498.9274904505921,175.14970227085774L501.74254764862064,175.89076547754317L502.7360972479248,175.88984490586597L506.7102956451416,176.18021526955343L508.69739484375,176.89564239591127L508.8629864436341,177.58870786563992L509.35976124328613,175.61488430455884L509.52535284317014,172.21091001428388L509.8565360429383,172.9238241967969L510.1877192427063,173.65165841045484L510.85008564224245,174.33947416035627L511.5124520417786,174.91687591164177L512.3404100411988,175.60894270128975L512.6715932409668,176.23042782624182L515.1554672392273,176.93422435332923L520.7855816352844,177.5853339813006L521.4479480348206,178.2586533392518L521.7791312345886,178.94569904585592L522.6070892340088,179.62403257646025L524.0974136329651,180.10737222653796L525.4221464320374,180.68493774756845L526.0845128315735,181.3504917347124L527.7404288304139,181.98750682855191L528.071612030182,182.41577583502826L528.40279522995,183.02678738465858L528.568386829834,183.67726742455181L529.2307532293702,184.12968604412347L529.7275280290223,184.73496813775992L531.0522608280945,184.0129594926403L531.7146272276307,184.19698986150314L534.0329096260072,183.31120778451694L535.0264592253113,183.94598480181207L535.8544172247315,184.56018369016104L536.0200088246155,185.15188348220195L536.3511920243836,185.19220210162652L536.8479668240357,185.69263189381047L537.1791500238038,184.2525576598703L537.5103332235718,184.62599361362737L537.6759248234558,184.8042219833442L538.8350660226441,184.77049047683013L539.3318408222962,185.3842654982767L540.1597988217163,185.94603630096546L543.306039219513,186.53934148860085L544.9619552183533,187.14092836800336L545.9555048176575,187.37062769889624L546.9490544169616,186.89969907949848L547.6114208164978,187.41796911156382L547.7770124163818,188.00168287695624L549.5985200151061,188.58562880597023L549.7641116149903,189.13403386797L552.2479856132508,189.65482463260096L553.9039016120911,190.2075754545081L555.3942260110474,190.77506482318793L558.2092832090759,191.3053089454704L561.1899320069886,191.85531414333244L561.3555236068727,192.2601693718127L561.6867068066407,192.75086975848822L563.342622805481,193.26900902122298L564.0049892050172,193.82111355130738L567.1512296028138,194.36860516838317L568.9727372015382,193.19865832705705L570.2974700006104,193.70671703867802L571.2910195999145,194.22263662079482L571.4566111997987,194.34752622295883L571.7877943995667,194.79625515799083L572.1189775993347,195.32858650209607L572.9469355987549,193.76314434771334L577.0867255958557,194.29069115555154L577.2523171957398,194.7286411270891L578.9082331945801,194.24357789323165L579.2394163943482,194.6562705254149L580.0673743937683,194.8769193880955L582.3856567921448,195.36565214689057L583.379206391449,195.88574580346003L584.5383475906372,196.30538369811856L584.8695307904053,196.79704742872613L587.3534047886658,197.29268934591937L588.0157711882019,197.63823419220367L588.34695438797,197.8416584726437L590.4996451864624,198.34622515391607L592.4867443850709,198.79986165462898L594.4738435836792,198.05391036717808L594.6394351835633,198.54049818547995L594.8050267834474,199.03599626046628L596.1297595825196,199.52846309861934L597.1233091818237,197.51047416455918L599.9383663798524,197.99744856365038L600.9319159791565,198.3522546615111L601.0975075790406,198.82953709305477L602.4222403781129,192.7569595630887L603.415789977417,192.69901395275758L604.4093395767212,192.977646068218L605.2372975761414,193.46824300859848L609.0459043734742,193.71118232749453L609.3770875732422,194.17510357168925L610.2050455726624,194.6214174892454L611.0330035720825,195.0988219449131L613.185694370575,195.44323866037848L614.3448355697632,195.55574313434911L616.8287095680237,196.02850236390296L618.8158087666321,196.50815233692478L619.3125835662842,196.91269516005443L621.6308659646606,197.383821902153L621.7964575645448,196.34845070590777L622.1276407643128,196.39202565181625L627.4265719606019,196.87163771536578L627.5921635604859,197.34213036374263L627.7577551603699,197.8107046407846L628.9168963595582,198.1871037143975L630.7384039582826,198.19867359252137L633.222277956543,198.41351597141758L633.7190527561951,198.77067746806912L634.0502359559632,199.2325095249858L639.0179839524842,199.6616067328883L641.1706747509766,200.1183646570676L642.6609991499329,200.55751153743506L644.1513235488892,201.00986928994914L645.1448731481934,201.4183102573054L645.8072395477295,201.86254847622612L648.622296745758,202.23910074142503L648.9534799455262,201.87820520265078L649.1190715454102,202.3193874546473L649.2846631452942,202.7187897177793L651.1061707440185,203.1403196497201L654.0868195419312,202.08987253449945L656.9018767399598,201.4021510711751L658.2266095390321,201.5801792836291L662.0352163363648,202.01481187816216L663.5255407353211,202.42404275622525L663.8567239350891,202.82092129403742L664.1879071348573,203.05273851660158L664.8502735343934,203.47793394645896L665.0158651342774,203.90266888650538L666.8373727330018,204.2915282204505L667.3341475326539,204.6310921554039L668.6588803317261,203.69022177573132L669.1556551313782,204.08654034322092L670.6459795303346,202.50315171133983L673.1298535285949,202.92895516873972L673.7922199281311,203.2981604746493L674.1234031278992,203.71570505256742L676.6072771261597,204.06349539062595L678.7599679246521,204.48170954045185L682.5685747219849,204.5957241254534L685.0524487202454,204.9453646551734L685.2180403201295,205.3578564771871L686.3771815193177,205.7630508615242L687.2051395187378,206.16832405994998L688.033097518158,206.57411909626725L688.6954639176942,206.97879712306633L689.0266471174623,207.12115142073736L691.6761127156068,207.52046315960484L694.6567615135193,207.91615992190253L694.8223531134033,208.21317389800566L695.9814943125916,208.6075960068776L696.4782691122437,208.99529794440596L700.4524675094605,209.38665011035593L700.9492423091126,208.95014979884448L702.1083835083008,209.33696521418864L702.6051583079529,209.72294969770067L702.770749907837,210.02856502118675L703.101933107605,210.41003901445924L703.2675247074891,210.79055005569995L706.5793567051697,211.16678690207922L707.4073147045899,211.53966134866116L708.8976391035461,211.9130426097892L709.2288223033142,212.2879532467666L712.8718375007629,212.64836557425696L714.1965702998352,211.23090728256653L716.5148526982117,211.59402210879853L716.6804442980957,211.73872809401186L717.5084022975159,208.2538148704272L718.336360296936,208.6051612850782L719.4955014961243,208.94301889545986L724.2976578927613,209.32097099615112L724.6288410925293,209.68988790458866L724.9600242922975,209.99251722918896L726.2847570913697,210.34346319443625L729.0998142893983,210.71222364837178L729.9277722888185,211.06934168604715L733.5707874862671,211.41390834753943L734.0675622859193,211.77927153653192L734.8955202853393,212.14196372963127L736.0546614845276,212.5046813177858L736.7170278840638,212.80323021097433L737.0482110838318,213.1568462275811L738.041760683136,213.51458092195992L738.20735228302,213.8517241015029L739.2009018823243,214.20637125380742L740.3600430815125,214.54536330211215L741.3535926808166,213.29813068998845L741.8503674804688,213.6514020443116L744.6654246784973,213.9810669369099L744.9966078782654,214.3133866942247L746.6525238771058,214.5679337871293L747.1492986767578,214.91440336421968L748.3084398759461,215.25921814884626L750.9579054740907,215.6007095273821L751.2890886738587,215.9439454481413L752.2826382731629,216.20094023421734L752.945004672699,216.53445096093398L753.2761878724672,216.87228741131747L755.5944702708435,216.63379265474086L758.4095274688722,216.96945212195217L760.3966266674805,217.2623590998973L761.7213594665528,217.5928351233105L764.7020082644653,217.92603553151457L765.0331914642335,218.25780110551867L765.3643746640015,218.5875811920419L765.8611494636536,218.91055645767472L766.3579242633057,219.2377547669612L769.1729814613343,219.55869578283705L770.9944890600586,219.87051587938447L771.1600806599427,220.17051841703494L773.3127714584351,220.4904921935985L778.2805194549561,220.80761648752883L778.6117026547241,221.11626090993215L782.585901051941,221.43132061999353L783.2482674514771,221.74725501871544L783.5794506512452,222.060230766289L784.5730002505494,222.33734030027875L785.0697750502015,222.649157951133L785.4009582499696,222.8209646479181L786.8912826489259,223.12472388874806L788.0504238481141,223.43016884876835L790.2031146466065,223.66931166546055L791.5278474456787,223.88176149427306L793.6805382441712,224.18168528221432L794.0117214439392,224.43538160939872L794.5084962435914,224.73559266793043L796.4955954421997,225.02456712852987L797.1579618417359,225.31428474816192L797.985919841156,224.6368839023008L798.317103040924,224.9238255128264L799.9730190397644,225.221777421902L800.6353854393005,225.5188436268682L802.788076237793,225.78923558482947L805.4375418359375,226.08016459583976L806.2654998353577,226.365388307774L807.4246410345459,226.65738129524823L811.5644310316468,226.94622143887997L811.7300226315308,227.2365763041964L813.0547554306031,227.525354395723L814.7106714294434,227.81290498292663L816.0354042285157,228.09602638710896L817.1945454277039,228.35561374438188L817.8569118272401,228.62000949784516L819.6784194259644,228.8850789323466L820.6719690252686,229.1632006459856L821.6655186245728,229.4399547028611L825.3085338220216,229.72007304975057L827.1300414207459,229.94090934406643L827.9579994201661,230.18103308039068L829.4483238191224,230.4534275465545L829.6139154190064,230.72752746199367L831.6010146176147,231.0011326628888L833.4225222163391,231.2710070373557L833.9192970159913,231.50612555324165L835.5752130148317,230.0580860109919L835.7408046147157,230.31503976223144L835.9063962145997,230.58273139880012L843.3580182093812,230.71750319085723L844.1859762088013,230.9883705989723L844.3515678086853,231.25142235605568L846.0074838075257,231.51386436454533L858.0956705990601,231.78207677027794L859.9171781977844,232.04823949628405L860.0827697976684,232.30653038595034L860.4139529974365,232.57049665159332L860.7451361972047,232.8291042794022L861.2419109968567,232.8107630765548L861.4075025967408,233.06526625921475L861.7386857965088,233.26778776178557L865.5472925938417,233.52832623750743L866.3752505932617,233.7832337032758L866.8720253929138,234.0397743223681L868.1967581919861,234.28363332055648L870.0182657907104,234.5379363771828L871.5085901896667,234.79063745702143L872.0053649893189,235.04443702297417L872.1709565892029,235.29869349125715L874.6548305874634,235.5512654067371L877.304296185608,235.79962276323727L878.2978457849122,236.04948933430302L878.9602121844483,236.28226886065366L880.4505365834045,236.53067388524025L880.7817197831728,236.75820393390683L882.2720441821291,236.98378192659976L882.9344105816651,237.22530870960938L883.9279601809694,237.34180455874352L884.7559181803895,237.4304876883579L889.0612997773744,237.67293742600606L890.5516241763305,237.9099670140805L893.0354981745911,238.14797168463662L894.1946393737794,238.38420401646823L895.1881889730835,238.6120056841409L895.8505553726197,238.8515007469377L896.0161469725037,239.07651451144946L899.1623873703004,239.31291463002634L899.3279789701844,239.21276316068227L899.6591621699524,238.589213017921L900.6527117692567,238.82437062841657L905.6204597657777,239.0584779046535L906.6140093650819,239.29530860390577L907.276375764618,239.51410645522526L907.77315056427,239.74732732829744L909.0978833633424,239.98102985713675L909.4290665631104,240.21445365624055L912.2441237611389,240.44473697189824L912.409715361023,240.6764383835406L915.5559557588196,240.90378239697196L915.7215473587038,241.13384079895792L916.2183221583558,241.3594567267788L917.7086465573121,241.58728875129745L919.0333793563844,241.81281835624077L919.3645625561525,242.03479569979348L919.5301541560365,242.2553817783505L922.0140281542969,242.27655049391097L923.6699441531372,242.2774869115407L924.1667189527894,242.47534957102994L925.9882265515138,241.8650997463888L926.4850013511658,242.05392645559957L926.8161845509338,242.27787469201502L927.1473677507018,242.4861127529486L929.1344669493104,242.70094917289447L931.9495241473388,242.92029956636762L934.4333981455994,243.1396054012073L935.4269477449036,243.35133394726532L936.5860889440918,243.55523970953797L937.9108217431641,243.77244988789903L938.5731881427002,243.98967897198162L939.7323293418884,244.20062335595145L939.8979209417726,244.41588677644464L940.0635125416566,244.62868491550697L941.7194285404969,244.8414601732324L946.0248101374818,245.05497740671242L946.8527681369019,245.25488965468793L949.5022337350465,245.46767177495784L950.3301917344666,244.88907835189437L951.3237413337708,245.07537817010098L951.9861077333069,245.25983068289264L952.1516993331909,245.4618301747887L953.4764321322632,245.61676125211602L953.9732069319152,243.69563035605563L954.1387985317995,243.90801090085938L954.4699817315675,244.1216056618948L954.9667565312195,244.33367797788495L956.4570809301758,244.5448554915802L957.1194473297119,244.75503098332692L957.7818137292481,244.96224035110603L958.2785885289002,245.1678095768802L958.4441801287842,245.3757985057991L959.4377297280885,245.58295208676657L960.4312793273925,245.7905470409284L960.7624625271608,245.9942914902444L961.2592373268128,246.19332438062003L967.0549433227538,246.39207631553205L969.0420425213624,246.59650538845682L972.188282919159,246.79669805549764L972.5194661189271,246.99079224383635L975.1689317170716,247.1938702966245L975.6657065167236,247.39621214288383L975.9968897164919,247.5944778365289L976.1624813163759,247.79331400789303L979.3087217141725,247.8995874766738L983.2829201113892,248.09387026538812L983.7796949110412,248.2903275342572L985.9323857095338,248.4876201264715L987.2571185086059,248.68513625005383L988.7474429075622,248.8817951499334L989.2442177072145,248.87814065750987L989.5754009069825,249.0302347508606L989.7409925068665,249.22446205848527L992.0592749052429,249.41586506583945L993.3840077043152,249.60538817441264L997.0270229017639,249.35991658002808L998.0205725010682,249.54427487301962L998.5173473007202,249.73118764076787L999.6764884999085,249.92349440665348L1001.829179298401,250.11230376167458L1002.160362498169,250.30350630964318L1002.325954098053,250.48504953094903L1003.4850952972413,250.66929977901864L1006.4657440951539,250.83308194969644L1009.1152096932985,251.01819966540376L1010.2743508924866,251.07126431416543L1011.1023088919069,251.25912282041514L1011.2679004917909,251.317346316257L1012.261450091095,251.4226007985384L1014.4141408895875,251.60755975468436L1014.7453240893556,251.78687117959947L1015.7388736886596,251.9727006734839L1020.0442552856446,252.15651177808334L1020.8722132850648,252.3378725508036L1023.0249040835572,252.51953534216136L1023.6872704830932,252.69863671223834L1026.6679192810059,252.88034025043677L1027.9926520800782,253.06240525122172L1031.8012588774109,253.24291406585314L1032.298033677063,253.4235373925865L1032.4636252769471,253.5372273975351L1033.1259916764832,253.7156400403125L1033.2915832763672,253.8878568070011L1033.9539496759032,254.06190412675988L1037.5969648733521,254.22980958058454L1041.4055716706848,254.40058220768003L1043.5582624691772,254.50202565853516L1046.2077280673218,254.67701953488537L1048.0292356660461,254.85305387446846L1050.6787012641907,255.02873386871318L1051.1754760638428,255.20387722896888L1052.9969836625671,255.3785009674955L1053.1625752624514,255.54548542214448L1053.6593500621034,255.7180986321246L1056.474407260132,255.84490429487678L1057.136773659668,255.9821187834898L1060.4486056573487,256.1497357312614L1060.7797888571167,256.28109609918096L1063.0980712554933,256.43871826047905L1063.9260292549134,256.58079501257794L1066.24431165329,256.74880625955745L1066.409903253174,256.7796715727958L1066.741086452942,256.9486097641734L1067.5690444523623,257.1099150552581L1072.205609249115,256.7381947518944L1073.6959336480713,256.89663846876795L1074.8550748472596,257.01586141253L1075.5174412467957,256.9617926299471L1076.5109908461,257.1286714049238L1077.504540445404,257.28770112735475L1078.3324984448243,257.45473488857095L1078.8292732444763,257.45701445178867L1079.1604564442443,257.6181128066077L1081.644330442505,257.7752450303089L1083.1346548414613,257.9333674691057L1084.4593876405336,258.0981198633783L1087.274444838562,258.26263990789795L1088.1024028379823,258.42637312145536L1088.4335860377503,258.5879341705245L1090.4206852363586,258.7498868305107L1090.7518684361266,258.73622285691187L1091.745418035431,258.8689896481509L1093.7325172340393,259.0101686548465L1094.5604752334596,259.1310124616164L1096.2163912322999,259.29136241924056L1097.8723072311402,259.45104184111506L1100.6873644291686,259.05235697672504L1102.508872027893,259.2109478861504L1102.8400552276612,259.37010668679363L1103.5024216271972,259.4350864044578L1105.4895208258056,259.59370369656483L1105.9862956254578,259.6925935579532L1112.7755512207032,259.814482404669L1113.2723260203552,259.9710808208888L1113.9346924198915,260.12841966988526L1116.2529748182678,260.2840645953204L1118.0744824169924,260.44054590503106L1119.2336236161805,260.59445369564526L1120.3927648153688,260.75004979464L1122.048680814209,260.90401338493916L1122.5454556138611,261.0567361060922L1123.3734136132814,261.1848268936599L1124.2013716127015,261.21413772981515L1125.1949212120057,261.36771853222035L1127.182020410614,261.5209080969639L1127.347612010498,261.6723384701298L1130.1626692085267,261.82451077655486L1130.6594440081788,261.9767974762031L1131.818585207367,262.12729245670425L1133.8056844059754,262.27202645745587L1136.289558404236,262.4222696361101L1136.620741604004,262.5726423688399L1137.7798828031923,262.72259453285824L1139.4357988020327,262.8688561777756L1140.7605316011047,263.018005565732L1141.091714800873,263.16567453156557L1141.422898000641,263.31398291037874L1142.250856000061,263.4600094932339L1143.7411803990174,263.0332528764612L1145.3970963978577,263.1761387784165L1145.5626879977417,263.32390360672935L1147.218603996582,263.46932156438976L1147.8809703961183,263.61426574663244L1148.0465619960023,263.75741182522444L1151.192802393799,263.9014363333007L1152.020760393219,264.04663305160153L1152.351943592987,264.1914805158478L1153.0143099925233,264.32960738776757L1154.5046343914796,264.46010443990065L1157.485283189392,264.60317962547543L1160.7971151870727,264.74673107650375L1161.625073186493,264.8841417777852L1163.1153975854493,265.02662192146795L1164.1089471847533,265.16851827152607L1164.2745387846373,265.3102547231256L1164.4401303845216,265.44986812816586L1164.9369051841736,265.5906904631012L1165.4336799838256,265.73125061500826L1169.0766951812743,265.86808802813414L1171.891752379303,265.964880232324L1172.057343979187,266.1043865994502L1172.7197103787232,266.2383232909911L1173.5476683781433,266.37591674580955L1174.7068095773316,266.5139197373912L1176.197133976288,266.65196290999137L1176.528317176056,266.78878259060684L1178.1842331748962,266.9242999560093L1179.1777827742005,267.06078182777975L1179.5089659739685,267.19662046428397L1180.5025155732728,267.3330394348237L1180.8336987730409,267.4651741999597L1181.1648819728089,267.6003310992399L1183.1519811714174,267.7326389804538L1183.4831643711855,267.8172151128288L1183.8143475709535,267.95194055119015L1187.6229543682862,268.0847218937371L1189.1132787672425,268.21834730548164L1189.6100535668947,268.3517848219762L1192.2595191650391,268.482804254419L1193.9154351638795,268.61549158653327L1194.0810267637635,268.7471340051004L1194.4122099635317,268.85232379728967L1195.4057595628358,268.95798101242934L1196.39930916214,269.08892749954936L1197.5584503613281,269.2196915162633L1198.3864083607484,269.3504743618061L1199.5455495599367,269.0728810958761L1200.5390991592408,269.1946007049247L1202.6917899577331,269.3244997519766L1203.8509311569214,269.4544323612605L1206.997171554718,269.5842165532612L1210.3090035523987,269.71296421306766L1210.8057783520508,269.8276559516178L1211.468144751587,269.9521298622875L1211.633736351471,270.0797521580396L1212.7928775506593,270.2069755576573L1215.6079347486877,270.33150417475815L1217.429442347412,270.43625494631095L1219.2509499461364,270.5558238688996L1220.4100911453247,270.674880824194L1221.403640744629,270.8012197205908L1225.3778391418457,270.92734870287L1229.1864459391784,271.04516675292433L1233.1606443363953,271.16850540239903L1234.4853771354676,271.2866542194089L1235.1477435350037,271.40896994255155L1237.300434333496,271.52970334751666L1239.1219419322206,271.6529961267448L1239.7843083317566,271.7749631423535L1241.109041130829,271.89848474793814L1241.274632730713,272.0187351330573L1241.9369991302492,272.14169369529685L1243.4273235292055,272.26411085553036L1243.5929151290895,272.3760699001348L1245.2488311279299,272.4978279779574L1245.4144227278139,272.61924307359374L1245.5800143276979,272.7381437979099L1246.9047471267702,272.85921404212877L1247.5671135263062,272.9789886014594L1250.2165791244508,273.09902129499335L1254.1907775216675,273.2191106297304L1254.8531439212038,273.33804121307355L1255.1843271209718,273.4569503720966L1255.3499187208558,273.5760474345461L1255.8466935205079,273.6949313784681L1257.3370179194642,273.813234794882L1257.5026095193482,273.93122200852304L1258.9929339183045,274.04913752856635L1259.4897087179568,274.1648365439552L1261.145624716797,274.28124825002027L1261.9735827162172,274.382449867552L1267.9348803120424,274.498613018118L1269.4252047109985,274.61462627112957L1269.7563879107668,274.7250538456342L1270.4187543103028,274.8388555156184L1271.412303909607,274.95436924238675L1271.9090787092591,275.06935085238L1273.0682199084474,275.17901979705164L1273.5649947080994,275.29274481359573L1274.3929527075195,275.4057806260135L1274.8897275071718,275.51190502943007L1276.214460306244,275.62436933252167L1276.87682670578,275.73758110524705L1277.5391931053161,275.84995203146735L1279.1951091041565,275.96179564861865L1279.3607007040405,276.0741017020994L1281.347799902649,276.1863874605923L1282.010166302185,276.2985631776406L1283.1693075013734,276.3578541248364L1283.8316739009094,276.4694203736613L1285.6531814996338,276.57954085522283L1287.6402806982421,276.68979591661696L1290.2897462963867,276.7990568415895L1294.4295362934874,276.90878613268086L1296.913410291748,277.0174083645594L1298.2381430908204,277.12738636427804L1299.2316926901244,277.23718142087137L1299.8940590896607,277.3406122330303L1300.5564254891967,277.44982588827105L1301.881158288269,277.55261715616837L1302.8747078875733,277.65550592244705L1303.0402994874573,277.76310047833476L1305.855356685486,277.86416902884713L1307.3456810844423,277.97184755149357L1308.3392306837466,278.07928681419196L1309.6639634828186,278.16718081159905L1310.160738282471,278.27414968379156L1310.823104682007,278.37402246574464L1312.4790206808473,278.4803138655632L1313.8037534799196,278.57984809533843L1314.3005282795716,278.6833295651294L1316.6188106779482,278.78897555231686L1317.2811770774842,278.8931750200345L1318.6059098765566,278.9978030947319L1319.1026846762086,279.1007797288838L1320.0962342755129,279.17456452115545L1323.0768830734255,279.20014545110894L1323.4080662731935,279.3046256122666L1326.3887150711062,279.4084882081243L1327.0510814706422,279.5122666069905L1327.5478562702942,279.60674481545834L1330.0317302685548,279.70809403672257L1330.5285050682069,279.8107857183817L1331.190871467743,279.9133423348018L1332.3500126669312,280.01291090778636L1334.5027034654236,280.11260051942423L1335.4962530647279,280.2146343291273L1337.8145354631042,280.31661290323365L1339.8016346617128,280.4167978098923L1340.9607758609009,280.4753005315774L1342.2855086599732,280.57658365421355L1343.6102414590455,280.66561066574883L1343.7758330589295,280.766150913931L1344.6037910583498,280.8660335756681L1345.2661574578858,280.96603876999393L1347.4188482563782,281.06623076752317L1348.0812146559144,280.81738157226624L1350.3994970542908,280.9175288307156L1352.3865962528992,281.0174332678423L1352.5521878527832,281.1162705386077L1353.7113290519715,281.2153613123718L1355.0360618510438,281.3095103024889L1356.0296114503478,281.40851970914395L1357.0231610496521,281.5068137580934L1358.1823022488404,281.5938564037738L1358.5134854486084,281.6920612314036L1360.0038098475648,281.7849227908344L1360.3349930473328,281.8427101243738L1360.5005846472168,281.93642653817284L1363.6468250450134,282.0339030784422L1364.1435998446655,282.1308572053589L1365.6339242436218,282.22793618250756L1367.7866150421144,282.3247934150233L1369.6081226408387,282.4213263236013L1370.1048974404907,282.5168268390682L1371.760813439331,282.61191757409614L1374.4102790374757,282.63375056973456L1376.2317866362,282.71831951867404L1376.7285614358523,282.8136627802647L1379.2124354341126,282.90727405434563L1380.868351432953,283.0023157396247L1381.033943032837,283.096322418945L1381.8619010322573,283.1888249686514L1382.0274926321413,283.2815073685922L1382.8554506315613,283.37572577994075L1383.1866338313296,283.4695370574962L1383.8490002308656,283.55812205904823L1384.0145918307496,283.64259898369596L1384.1801834306336,283.73565961889045L1386.6640574288942,283.8287523070397L1387.8231986280823,283.91836228456424L1387.9887902279663,284.0082292688099L1388.6511566275026,284.10079480388384L1388.9823398272706,284.18451562924434L1390.472664226227,284.2743385747074L1391.135030625763,284.3639264131194L1391.6318054254152,284.45514182069104L1395.9371870224,284.54629684078543L1396.102778622284,284.63765150537165L1397.5931030212403,284.72867579044544L1398.0898778208925,284.81762278898304L1398.7522442204286,284.9081976978618L1399.2490190200806,284.99749305132326L1400.904935018921,285.08730410918787L1401.070526618805,285.1763433656149L1401.236118218689,285.2661571791221L1401.4017098185732,285.35330140758884L1402.2296678179932,285.44271109768175L1403.2232174172975,285.53183391357385L1403.8855838168336,285.62082351425573L1404.2167670166016,285.70964004514326L1406.8662326147462,285.7977542277389L1407.8597822140503,285.8856247272974L1408.0253738139343,285.97355349466085L1409.3501066130066,286.06041894607426L1410.3436562123109,286.14390708015844L1411.171614211731,286.2314017677768L1412.4963470108032,286.2844453837132L1413.6554882099915,286.3701750846974L1415.3114042088318,286.4463582357434L1418.2920530067445,286.3968382795202L1419.6167858058166,286.48349902704206L1423.4253926031495,286.5702371708168L1424.5845338023375,286.65151500021136L1425.5780834016418,286.73736426929094L1426.0748582012939,286.82150761954216L1431.208197797699,286.9070894977235L1431.373789397583,286.9922184138023L1434.0232549957277,287.06912236383647L1434.1888465956117,287.1538644599502L1435.844762594452,287.23840979067734L1436.341537394104,287.3233948754502L1436.672720593872,282.66134746655246L1438.4942281925967,282.75370283093616L1439.4877777919007,282.84588739033006L1439.984552591553,282.93577116060465L1440.646918991089,283.0157393009167L1443.2963845892336,283.09648295846154L1443.6275677890017,283.18607727916896L1443.7931593888857,283.2771993339323L1444.4555257884217,283.33981175506506L1444.952300588074,283.43036892356645L1445.283483787842,283.52050003192295L1445.780258587494,283.6084106396875L1447.6017661862184,283.69628533908815L1448.2641325857546,283.7857895261842L1450.085640184479,283.8745175933567L1450.582414984131,283.9641261380662L1453.8942469818116,284.0518996688669L1455.218979780884,284.14031950371987L1456.8748957797243,284.2283904983295L1457.0404873796083,284.26259086152186L1458.8619949783326,284.3503778813229L1462.6706017756653,284.43657355602886L1463.4985597750856,284.52049896117245L1466.313616973114,284.6083166755232L1469.1286741711426,284.69634634086634L1470.122223770447,284.7841078414873L1470.453406970215,284.87050001430464L1473.5996473680116,284.95762526847017L1473.7652389678956,285.04321351999243L1474.4276053674316,285.129167929847L1475.089971766968,285.2154936496245L1478.0706205648803,285.2997873441764L1479.0641701641846,285.386277896122L1479.2297617640686,285.4725138393212L1486.184608959198,285.3950245484649L1487.5093417582702,285.4804251367843L1488.8340745573425,285.5660340560243L1488.9996661572266,285.65087547771634L1490.1588073564149,285.735102122087" fill="none"></path></g></g></g></g><g opacity="0.2"><g><g><g><path style="fill: none;" stroke="rgb(255, 112, 67)" stroke-width="2px" d="M177.84537827545165,-447.94228046476013L181.15721027313234,182.72948659105683L182.48194307220461,-24.51162018347719L183.14430947174074,129.14147111665042L186.4561414694214,-49.3199344427382L188.60883226791384,158.07508530949698L191.25829786605837,233.75161056545275L191.75507266571046,-435.66012162358896L193.24539706466675,123.13552272159937L195.0669046633911,-68.94337208285168L195.8948626628113,195.7995308828233L196.22604586257935,-48.38009410891567L197.05400386199952,-254.12968431172084L199.8690610600281,299.1385237888383L203.51207625747682,220.600631702097L204.34003425689698,308.9597433057894L206.82390825515748,-1164.3881621363673L207.81745785446168,147.69358350435832L208.64541585388184,176.10547805406648L209.80455705307008,-67.32675127970487L210.4669234526062,280.53632807092214L210.7981066523743,303.2471208389587L213.94434705017093,274.4761607150928L216.59381264831543,-155.47741866260952L216.9249958480835,316.98118422571935L218.24972864715576,309.0704431640658L220.2368278457642,275.67619691891L221.72715224472046,325.43482948710425L223.0518850437927,247.4044242849616L225.70135064193727,106.96055953208109L226.3637170414734,172.91354773980626L235.30566343521122,334.35622652270536L235.47125503509523,290.90690280862293L238.2863122331238,315.06292403290036L238.78308703277588,242.66893034758206L239.27986183242797,194.17866754164962L241.76373583068846,-261.80230870658573L242.2605106303406,-60.44821296793606L242.42610223022461,334.86799603562724L244.08201822906497,-18.061094315510843L246.89707542709354,292.91879986692464L247.22825862686156,107.3313596063118L250.70568222442628,269.3016259857243L251.2024570240784,307.28865315334684L253.52073942245488,140.9445495098656L254.348697421875,-526.5931287197894L258.8196706187439,329.2090354854572L260.4755866175842,120.1287223624581L261.46913621688844,338.3623635012899L261.8003194166565,336.3919526904815L262.6282774160767,317.5288261138043L262.7938690159607,310.90550684857567L265.27774301422124,309.2097126335244L268.2583918121338,301.25124301906874L268.5895750119019,275.2904466808367L270.57667421051025,-348.9574988644085L271.7358154096985,315.07385110033823L271.90140700958256,128.80400366214266L272.2325902093506,-734.0643566086768L272.7293650090027,211.9229984383604L273.06054820877074,270.2581438828248L275.04764740737915,277.9420442010396L276.7035634062195,-78.86879542339483L278.6906626048279,285.56342616379493L279.5186206042481,319.73265441083237L283.82400220123293,85.2371443425884L284.4863686007691,336.793245655111L285.1487350003052,193.46513341398125L285.31432660018925,337.14349013323124L286.47346779937743,9.5099562054737L287.96379219833375,326.7673099632626L288.6261585978699,334.37313231933706L289.288524997406,329.32222305212235L290.11648299682616,289.7809590991527L290.7788493963623,321.2168337549922L292.2691737953186,322.88244771362224L292.93154019485473,-963.1831066460671L293.2627233946228,310.31698692499316L293.5939065943909,310.2365925173967L294.7530477935791,332.25231098088375L295.5810057929993,309.4725221095052L295.91218899276737,272.43313670670545L296.74014699218753,227.77001456374418L297.0713301919556,307.0589596688211L297.7336965914917,-21.407140168969534L298.39606299102786,287.74168810517375L299.38961259033204,-31.990213170758295L299.5552041902161,235.53982346364873L303.36381098754885,-367.01644152668126L304.026177387085,319.0193340980778L309.49070018325807,339.4130637468636L310.6498413824463,332.8515392336206L311.64339098175054,144.34539950176142L313.96167338012697,315.767494814313L314.6240397796631,-20.509365106087046L315.78318097885136,324.0443742224051L316.1143641786194,318.3817816320543L317.1079137779236,325.29014712430103L317.4390969776917,-1168.860449914834L319.7573793760681,224.0862761874474L319.9229709759522,296.7672573141329L321.5788869747925,314.09226340459225L322.0756617744446,-34.14038095780273L323.56598617340086,236.54999765070167L324.228352572937,129.11761387363467L324.89071897247317,218.12536396529683L326.3810433714295,327.25400334749224L326.5466349713135,308.9722289714149L327.5401845706177,323.17892459846735L327.70577617050174,338.8990765635907L328.5337341699219,311.17471951855447L330.5208333685303,329.7917985831528L331.5143829678345,309.566226495487L332.0111577674866,330.7166796097317L333.5014821664429,259.98380273646796L335.3229897651673,333.47568466054133L338.46923016296387,-243.9485833479145L340.6219209614563,-312.2034353973315L341.6154705607605,339.5777733227049L342.1122453604126,297.4758174317008L342.4434285601807,-660.6160978503925L343.10579495971683,-12.017401961462213L344.09934455902106,338.79556869347635L344.9273025584412,330.1598584504616L346.58321855728155,313.3726552453589L347.57676815658573,157.06466354728067L348.4047261560059,-100.74341151720813L350.0606421548462,187.92383858691156L350.8886001542664,326.7263348670476L357.0154893499756,289.5194522061338L357.6778557495117,-181.39786306256627L357.8434473493958,315.61778217432675L358.0090389492798,268.90993957043827L360.9896877471924,218.45772236870593L362.9767869458008,328.36687691701667L363.14237854568483,338.4839635243053L364.13592814498907,338.43070092809637L365.29506934417725,238.76324083732314L369.60045094116214,225.64381655388067L369.93163414093016,338.87219311862236L371.5875501397705,250.39377622179347L373.4090577384949,336.8943660425774L373.90583253814697,334.0026701992711L374.4026073377991,337.9582589408775L377.71443933547977,335.53555644013153L378.70798893478394,307.49277887554626L379.8671301339722,-34.84322433978008L380.8606797332764,333.06972680309633L382.51659573211674,334.6574214024251L383.5101453314209,335.9796236409416L384.006920131073,335.08784348403924L385.8284277297974,-47.91091666749452L386.3252025294495,179.867438928572L386.82197732910157,325.3559838309559L386.9875689289856,337.61903542588925L394.9359657234192,337.64938026352695L395.43274052307135,281.5569285483779L395.92951532272343,197.62258435855549L396.09510692260744,333.8548748601239L399.7381221200562,326.90478169943265L401.7252213186646,339.0214356647171L402.0564045184326,325.60777480548956L402.71877091796875,313.4839430946483L403.3811373175049,-315.582746350014L404.043503717041,339.36300665997425L408.1832937141419,218.14772450391584L408.34888531402595,248.75954944850602L410.1703929127503,296.140954044595L411.49512571182254,324.0378978811997L412.1574921113587,-90.25648770613947L412.4886753111267,302.9734602561016L415.30373250915534,317.5970190045424L417.78760650741583,116.968560443025L418.44997290695187,203.9083489552984L422.58976290405275,202.1403922068328L425.23922850219725,132.55562264686918L425.4048201020814,328.8966314995481L427.88869410034187,335.8076366213066L428.5510604998779,317.90773427463546L430.0413848988342,257.32327563025893L431.2005260980225,221.7302834123095L431.36611769790653,331.31029029761106L433.5188084963989,339.1603562782637L435.0091328953552,308.1274800071599L435.8370908947754,261.24584526529316L436.66504889419554,338.6501887067664L437.1618236938477,335.7458958065946L437.98978169326784,334.66887105039245L438.48655649291993,17.083145411995574L440.4736556915284,319.65770806350713L441.7983884906006,306.24700316029623L442.9575296897889,331.9971777416446L444.11667088897707,337.6779991084064L445.6069952879334,325.49708479395264L446.26936168746954,328.8310979318006L446.43495328735355,319.8630674414922L446.60054488723756,-142.869405892776L446.9317280870056,337.75945661219447L447.4285028866577,272.7909390848592L448.5876440858459,338.38588709808937L450.0779684848022,332.6274858207854L451.73388448364256,273.395663928226L452.3962508831787,334.9288534571426L452.7274340829468,-342.0642860975017L453.2242088825989,308.427746480017L454.0521668820191,338.46709614754093L454.5489416816712,339.17670929476765L454.7145332815552,338.807191186888L454.88012488143926,339.5695461740786L458.0263652792359,337.75298607353193L459.5166896781922,166.66835170960664L460.5102392774964,333.5421192049487L461.6693804766846,333.10757837288935L461.8349720765686,281.8196226768394L463.3252964755249,339.5831815344524L464.4844376747132,332.49257634688854L466.47153687332155,331.8682797021833L467.9618612722779,182.5278928875737L468.62422767181397,262.3425469719443L470.2801436706543,336.23931838223206L470.94251007019045,276.9345539538259L472.43283446914677,288.57635400822966L474.58552526763924,338.91843692378285L475.08230006729127,334.9475619104326L476.07584966659545,328.9995039032985L476.4070328663636,337.9853216492543L482.0371472624207,317.351852072306L483.0306968617249,323.7886150118722L485.84575405975346,294.8428443158333L486.17693725952154,338.6031653387602L486.5081204592896,154.0421196584323L487.5016700585938,238.89418559191338L487.99844485824593,339.265430791L488.32962805801395,339.38327639293004L491.3102768559266,331.1260338889492L493.62855925430296,339.5087084020834L493.9597424540711,338.87241247232714L496.9403912519836,334.4659002100631L497.60275765151977,333.70463682625405L498.9274904505921,-291.5451785879931L501.74254764862064,339.72155789585094L502.7360972479248,175.68561308382223L506.7102956451416,240.8254856811213L508.69739484375,336.72690606140554L508.8629864436341,332.9617629317106L509.35976124328613,-268.410900062948L509.52535284317014,-596.1723728522433L509.8565360429383,334.40208947005056L510.1877192427063,339.07162642988624L510.85008564224245,331.1949695051774L511.5124520417786,307.0377497920409L512.3404100411988,334.5004481987699L512.6715932409668,319.39527698365674L515.1554672392273,339.60123331132587L520.7855816352844,328.57489983802355L521.4479480348206,334.9150676702402L521.7791312345886,339.32223368567L522.6070892340088,338.48620321794414L524.0974136329651,293.67265498597294L525.4221464320374,316.8307752805861L526.0845128315735,338.7452909780812L527.7404288304139,333.1189640170503L528.071612030182,284.34858046384153L528.40279522995,328.91933034400114L528.568386829834,339.4882998037262L529.2307532293702,292.84219223398605L529.7275280290223,330.63855346890193L531.0522608280945,9.425127951769568L531.7146272276307,228.83644457996493L534.0329096260072,-32.21917518321044L535.0264592253113,338.8809685855726L535.8544172247315,334.9361752112639L536.0200088246155,330.46560041379274L536.3511920243836,195.12430338497833L536.8479668240357,309.34531630255265L537.1791500238038,-172.6624660118486L537.5103332235718,277.4606905629472L537.6759248234558,229.24483106536198L538.8350660226441,176.33437254601952L539.3318408222962,339.34665777558416L540.1597988217163,327.28372221383626L543.306039219513,336.2543030096628L544.9619552183533,339.39487712680585L545.9555048176575,245.67592764151237L546.9490544169616,67.01149356803477L547.6114208164978,319.7440822553053L547.7770124163818,337.47116254366887L549.5985200151061,338.54839082845876L549.7641116149903,330.3765908125141L552.2479856132508,324.1714168548182L553.9039016120911,333.388652143877L555.3942260110474,338.193844468123L558.2092832090759,329.44072574807615L561.1899320069886,335.54491717265796L561.3555236068727,298.32782766296333L561.6867068066407,321.67067560305503L563.342622805481,329.77921656014837L564.0049892050172,339.6859851868613L567.1512296028138,339.41705273134954L568.9727372015382,-117.61736942025499L570.2974700006104,329.0536229900051L571.2910195999145,332.0416421003183L571.4566111997987,227.80102897966466L571.7877943995667,315.32293140816836L572.1189775993347,338.69933000292804L572.9469355987549,-228.9936030429896L577.0867255958557,337.1423232946061L577.2523171957398,313.63773791147605L578.9082331945801,62.18974219305345L579.2394163943482,307.3078289750916L580.0673743937683,255.26702323075597L582.3856567921448,329.4829893604823L583.379206391449,338.98594546612895L584.5383475906372,312.0696277735793L584.8695307904053,332.78638054531086L587.3534047886658,334.74040620583605L588.0157711882019,293.7115270999763L588.34695438797,254.54723220350422L590.4996451864624,339.3602172633138L592.4867443850709,325.9065220671169L594.4738435836792,-11.494073079761904L594.6394351835633,335.57912544885363L594.8050267834474,338.9394901319049L596.1297595825196,338.92901636615113L597.1233091818237,-375.15806330830304L599.9383663798524,336.5402143430756L600.9319159791565,299.54704250187945L601.0975075790406,335.2966653976188L602.4222403781129,-1547.8768686128426L603.415789977417,176.0482994447443L604.4093395767212,273.24108137224204L605.2372975761414,335.13955785630395L609.0459043734742,264.0381217453734L609.3770875732422,328.80183764217975L610.2050455726624,324.454977630856L611.0330035720825,334.3147274392838L613.185694370575,296.1222283595109L614.3448355697632,228.52226044423057L616.8287095680237,334.89208608369717L618.8158087666321,337.7340370784638L619.3125835662842,316.309410120068L621.6308659646606,336.7637131734781L621.7964575645448,-110.68765057016748L622.1276407643128,209.34464940626575L627.4265719606019,339.7725734133665L627.5921635604859,337.8557647574229L627.7577551603699,338.07957833181854L628.9168963595582,311.1264479884054L630.7384039582826,201.6783269246503L633.222277956543,263.17760674457827L633.7190527561951,306.685908911287L634.0502359559632,339.09545316559314L639.0179839524842,329.90972524484863L641.1706747509766,339.0802708121175L642.6609991499329,334.4666193737124L644.1513235488892,339.26133775637L645.1448731481934,326.5309502361277L645.8072395477295,338.2482311751412L648.622296745758,318.1050727799981L648.9534799455262,90.58035653212822L649.1190715454102,338.68182223643L649.2846631452942,326.4432467345035L651.1061707440185,334.0098836392584L654.0868195419312,-124.75865250085957L656.9018767399598,-13.056677483627766L658.2266095390321,257.21877077777503L662.0352163363648,338.1475190756928L663.5255407353211,330.88123972613494L663.8567239350891,327.6726318485967L664.1879071348573,276.13742944827027L664.8502735343934,337.8194207937739L665.0158651342774,338.3887771161186L666.8373727330018,327.6834942088896L667.3341475326539,312.61222813106474L668.6588803317261,-96.14675097939715L669.1556551313782,330.65513326812396L670.6459795303346,-304.24515427760247L673.1298535285949,339.4923605946804L673.7922199281311,321.95986871405955L674.1234031278992,338.1964696791948L676.6072771261597,316.3135752908563L678.7599679246521,339.7440426286692L682.5685747219849,241.5483038774161L685.0524487202454,318.501219768256L685.2180403201295,339.60459379689524L686.3771815193177,337.90773197988995L687.2051395187378,338.61140609259127L688.033097518158,339.4605131182271L688.6954639176942,339.771154872959L689.0266471174623,253.92925083548056L691.6761127156068,339.0874038956775L694.6567615135193,338.5569479087947L694.8223531134033,306.4721221310079L695.9814943125916,339.35490398028884L696.4782691122437,337.77372541683394L700.4524675094605,339.6385012859717L700.9492423091126,63.381073879194886L702.1083835083008,338.5939872984175L702.6051583079529,338.95892935393L702.770749907837,312.55818922495075L703.101933107605,338.6422888083716L703.2675247074891,338.9513260885612L706.5793567051697,338.1371012253523L707.4073147045899,337.6219177071946L708.8976391035461,338.41342543914857L709.2288223033142,339.55400094187894L712.8718375007629,335.23056775236853L714.1965702998352,-271.8040752247793L716.5148526982117,335.57365031004895L716.6804442980957,261.24137765893596L717.5084022975159,-986.193732630425L718.336360296936,329.259065361937L719.4955014961243,325.1863062233917L724.2976578927613,339.60670436197535L724.6288410925293,337.1024323947387L724.9600242922975,314.7091785114009L726.2847570913697,332.00794585457413L729.0998142893983,338.793110261554L729.9277722888185,335.33921315879206L733.5707874862671,331.5404740090938L734.0675622859193,339.3937690609069L734.8955202853393,339.05918050288784L736.0546614845276,339.6662133736277L736.7170278840638,317.6620862588429L737.0482110838318,337.5859034334826L738.041760683136,339.6244014144559L738.20735228302,332.9205107201139L739.2009018823243,339.6860741372063L740.3600430815125,334.70475819566474L741.3535926808166,-229.60083739823966L741.8503674804688,339.3274180379503L744.6654246784973,331.47115929339674L744.9966078782654,332.9632040723633L746.6525238771058,305.61359054487383L747.1492986767578,339.0608232379473L748.3084398759461,339.0336119493057L750.9579054740907,338.40070503428797L751.2890886738587,339.5907421379434L752.2826382731629,308.9445174332421L752.945004672699,337.10371282253675L753.2761878724672,339.22073050620736L755.5944702708435,130.11034526508647L758.4095274688722,338.95680826075125L760.3966266674805,323.8985158775759L761.7213594665528,338.11626728301763L764.7020082644653,339.65439135186614L765.0331914642335,339.6721975097365L765.3643746640015,339.4841223464929L765.8611494636536,337.5167179562408L766.3579242633057,339.6014581159043L769.1729814613343,337.8231391687595L770.9944890600586,334.97057127884773L771.1600806599427,331.0974023839762L773.3127714584351,339.0031471924482L778.2805194549561,338.4642231854711L778.6117026547241,335.8205671485537L782.585901051941,338.71745415773233L783.2482674514771,339.5570124396603L783.5794506512452,338.96268386293275L784.5730002505494,326.01640042598757L785.0697750502015,339.5089165463303L785.4009582499696,287.31612890617197L786.8912826489259,337.3434777631758L788.0504238481141,338.4730693379438L790.2031146466065,313.8889816886316L791.5278474456787,304.1632502241802L793.6805382441712,337.70451110271233L794.0117214439392,320.6182729705225L794.5084962435914,338.73952430545484L796.4955954421997,334.94039489078847L797.1579618417359,335.69201374497334L797.985919841156,-33.860530995861325L798.317103040924,334.59843169638225L799.9730190397644,339.2885026246685L800.6353854393005,339.42953088004447L802.788076237793,329.6380635501003L805.4375418359375,337.99551372792587L806.2654998353577,336.261225619167L807.4246410345459,339.3405970634926L811.5644310316468,338.5898058629257L811.7300226315308,339.6434721310488L813.0547554306031,339.49851676299835L814.7106714294434,339.4858706922289L816.0354042285157,338.2217627878243L817.1945454277039,329.4856676736133L817.8569118272401,331.7844466725024L819.6784194259644,332.47375641444114L820.6719690252686,338.02184039252853L821.6655186245728,337.9314387084598L825.3085338220216,339.70043396923734L827.1300414207459,316.77979871044175L827.9579994201661,324.7497341496511L829.4483238191224,337.89625771507394L829.6139154190064,339.00876255937277L831.6010146176147,339.25218006888605L833.4225222163391,338.20879410446173L833.9192970159913,324.81361276183196L835.5752130148317,-345.4726758784638L835.7408046147157,332.5971986569073L835.9063962145997,337.30004485045976L843.3580182093812,284.52621564356025L844.1859762088013,339.296793359494L844.3515678086853,336.592302188101L846.0074838075257,336.7676490559049L858.0956705990601,339.5104865957484L859.9171781977844,339.1123800184222L860.0827697976684,336.35835420879334L860.4139529974365,339.06599532576195L860.7451361972047,337.31671028114806L861.2419109968567,225.3892867791022L861.4075025967408,336.19720317425623L861.7386857965088,315.45551916157007L865.5472925938417,339.41518171897764L866.3752505932617,337.53261411040944L866.8720253929138,338.6057312056434L868.1967581919861,333.8247797076652L870.0182657907104,338.4925020540875L871.5085901896667,338.2394921938773L872.0053649893189,339.09262890971667L872.1709565892029,339.68396470406157L874.6548305874634,339.39356729066543L877.304296185608,338.0551522637648L878.2978457849122,339.0731436190177L878.9602121844483,332.39725217226686L880.4505365834045,339.24303653609013L880.7817197831728,330.97224751218386L882.2720441821291,330.52147855016875L882.9344105816651,337.51743149318185L883.9279601809694,285.783807446153L884.7559181803895,274.35895638206966L889.0612997773744,338.7724812544842L890.5516241763305,336.8873062820594L893.0354981745911,337.6708619806499L894.1946393737794,337.3031959829191L895.1881889730835,334.1329597940185L895.8505553726197,339.4145175036512L896.0161469725037,333.68919854547L899.1623873703004,338.85004032862236L899.3279789701844,196.98574226444956L899.6591621699524,-24.679228569079385L900.6527117692567,338.245651681074L905.6204597657777,338.1705885795524L906.6140093650819,339.69674169470505L907.276375764618,332.39656008715104L907.77315056427,338.8865184540964L909.0978833633424,339.45909153917734L909.4290665631104,339.70770190697124L912.2441237611389,338.73130157467364L912.409715361023,339.70083437766584L915.5559557588196,338.1958709622692L915.7215473587038,339.7189291790761L916.2183221583558,338.16955607858694L917.7086465573121,339.4781417270767L919.0333793563844,338.8428107118488L919.3645625561525,337.6627461573256L919.5301541560365,337.4093114806419L922.0140281542969,251.4200878081316L923.6699441531372,242.68249071448489L924.1667189527894,328.1637098452367L925.9882265515138,-22.761083723779677L926.4850013511658,324.0427073100836L926.8161845509338,339.6429499681265L927.1473677507018,333.138433130963L929.1344669493104,336.3468314136186L931.9495241473388,338.6573128227601L934.4333981455994,338.980539694087L935.4269477449036,335.99983231532104L936.5860889440918,332.8951089456812L937.9108217431641,339.0633789064218L938.5731881427002,339.4106146341768L939.7323293418884,336.97898909726473L939.8979209417726,339.2142378563397L940.0635125416566,338.46024061894923L941.7194285404969,338.78166755905465L946.0248101374818,339.44180277471474L946.8527681369019,333.73887323599104L949.5022337350465,339.766431515128L950.3301917344666,-11.848060549716422L951.3237413337708,327.8449610424277L951.9861077333069,327.3110089355355L952.1516993331909,335.4304829384443L953.4764321322632,314.7073610846335L953.9732069319152,-614.083850744479L954.1387985317995,338.8526609679937L954.4699817315675,339.7269643822211L954.9667565312195,339.37452418011003L956.4570809301758,339.30101985261064L957.1194473297119,339.1772429968377L957.7818137292481,338.1658213509804L958.2785885289002,337.7465461300955L958.4441801287842,339.15836833586076L959.4377297280885,339.10240258987886L960.4312793273925,339.62292405186884L960.7624625271608,338.1976991149493L961.2592373268128,336.37330507597454L967.0549433227538,336.55325916283425L969.0420425213624,339.44453480532616L972.188282919159,337.82969621806154L972.5194661189271,335.3562881083408L975.1689317170716,339.7598803782655L975.6657065167236,339.73655735932886L975.9968897164919,338.18222496390007L976.1624813163759,338.74950177795677L979.3087217141725,296.57118059809716L983.2829201113892,337.1774708794117L983.7796949110412,338.4771627682018L985.9323857095338,339.1644488293485L987.2571185086059,339.5712403187889L988.7474429075622,339.4794223966474L989.2442177072145,247.1926068525729L989.5754009069825,319.26123191281613L989.7409925068665,339.01524681313674L992.0592749052429,338.0037095560082L993.3840077043152,337.4247671690547L997.0270229017639,135.4841892543852L998.0205725010682,335.1678285486099L998.5173473007202,336.6410600768452L999.6764884999085,339.44414075991347L1001.829179298401,338.1055997474982L1002.160362498169,339.5140360595896L1002.325954098053,335.28542675121116L1003.4850952972413,336.83215328771024L1006.4657440951539,327.5112634824531L1009.1152096932985,337.78334585711343L1010.2743508924866,275.97094077761153L1011.1023088919069,339.50802669121094L1011.2679004917909,278.69938225249984L1012.261450091095,300.97857555021926L1014.4141408895875,338.7877313922109L1014.7453240893556,336.3996999644148L1015.7388736886596,339.7592074591247L1020.0442552856446,339.08631864432215L1020.8722132850648,338.2042521200548L1023.0249040835572,338.62437925973694L1023.6872704830932,337.6834452344967L1026.6679192810059,339.19519738330376L1027.9926520800782,339.6443647775429L1031.8012588774109,339.17930755918195L1032.298033677063,339.5088994464122L1032.4636252769471,307.781454329391L1033.1259916764832,338.93369840284333L1033.2915832763672,336.2362665963404L1033.9539496759032,337.37627391143326L1037.5969648733521,334.6915048360313L1041.4055716706848,336.32501701736993L1043.5582624691772,303.21998041167416L1046.2077280673218,338.80815432109074L1048.0292356660461,339.57563512960803L1050.6787012641907,339.6717265146925L1051.1754760638428,339.67890226013037L1052.9969836625671,339.69312711710126L1053.1625752624514,336.2577817220436L1053.6593500621034,339.24007359064683L1056.474407260132,317.2674036214093L1057.136773659668,322.51708866627746L1060.4486056573487,337.51295597426616L1060.7797888571167,320.1124150179647L1063.0980712554933,333.1121775035521L1063.9260292549134,325.7651946291128L1066.24431165329,338.6480610197889L1066.409903253174,271.841156357544L1066.741086452942,339.47246543345176L1067.5690444523623,335.98755835459383L1072.205609249115,74.77887172997167L1073.6959336480713,334.5365164537142L1074.8550748472596,315.49763507288446L1075.5174412467957,230.41223798798856L1076.5109908461,339.15642004416765L1077.504540445404,335.5380202350102L1078.3324984448243,339.7281064391526L1078.8292732444763,258.58097996701684L1079.1604564442443,337.1310614380269L1081.644330442505,335.41005904247396L1083.1346548414613,336.1372604445021L1084.4593876405336,339.66414823982086L1087.274444838562,339.79654051456413L1088.1024028379823,339.6527565073858L1088.4335860377503,338.8179795208004L1090.4206852363586,339.255769513127L1090.7518684361266,251.9370697629164L1091.745418035431,324.9999243256852L1093.7325172340393,329.4019317046498L1094.5604752334596,319.44412806475646L1096.2163912322999,339.40214762513165L1097.8723072311402,339.306571567398L1100.6873644291686,59.47152444707068L1102.508872027893,338.68027673792255L1102.8400552276612,339.2032495105322L1103.5024216271972,292.06086189851186L1105.4895208258056,339.3129443420046L1105.9862956254578,309.44259927498683L1112.7755512207032,321.1953791164028L1113.2723260203552,338.90863607716983L1113.9346924198915,339.51708028459205L1116.2529748182678,338.8949753966088L1118.0744824169924,339.551177191527L1119.2336236161805,338.4799619676431L1120.3927648153688,339.5666323084772L1122.048680814209,338.96947512396605L1122.5454556138611,338.5681631691962L1123.3734136132814,326.25775104334775L1124.2013716127015,276.11907512593126L1125.1949212120057,339.54086244621953L1127.182020410614,339.56997310056767L1127.347612010498,338.8992332322488L1130.1626692085267,339.5041936500652L1130.6594440081788,339.789271208617L1131.818585207367,339.0977161573208L1133.8056844059754,336.36657131286626L1136.289558404236,339.41033901338943L1136.620741604004,339.70026614606974L1137.7798828031923,339.7073948667329L1139.4357988020327,338.0299850527326L1140.7605316011047,339.735446831745L1141.091714800873,339.1932016602184L1141.422898000641,339.74251584556055L1142.250856000061,338.78328049014385L1143.7411803990174,42.697924512521226L1145.3970963978577,337.01739771117536L1145.5626879977417,339.757771857263L1147.218603996582,338.75928372234677L1147.8809703961183,338.728685858672L1148.0465619960023,338.0088210687917L1151.192802393799,338.6776698136525L1152.020760393219,339.5011342593257L1152.351943592987,339.5339141868382L1153.0143099925233,336.24246582216415L1154.5046343914796,332.46308325221344L1157.485283189392,339.22909135509286L1160.7971151870727,339.6895894341804L1161.625073186493,336.68668002072747L1163.1153975854493,339.54603090744484L1164.1089471847533,339.45013417129917L1164.2745387846373,339.5755618505247L1164.4401303845216,338.66908855605453L1164.9369051841736,339.5107535347007L1165.4336799838256,339.5803264635565L1169.0766951812743,337.8260768379743L1171.891752379303,316.9102961417255L1172.057343979187,339.5978292847055L1172.7197103787232,336.8608449281278L1173.5476683781433,338.99149216962934L1174.7068095773316,339.41066334037015L1176.197133976288,339.63491832563284L1176.528317176056,339.1892287206427L1178.1842331748962,338.6992745271013L1179.1777827742005,339.41065397717597L1179.5089659739685,339.2692035868046L1180.5025155732728,339.777435339878L1180.8336987730409,337.69630437288276L1181.1648819728089,339.5009442480253L1183.1519811714174,338.1794253248722L1183.4831643711855,312.88888774942365L1183.8143475709535,339.81159580004316L1187.6229543682862,338.9692640344891L1189.1132787672425,339.6156474872482L1189.6100535668947,339.7106979972429L1192.2595191650391,338.60941160034827L1193.9154351638795,339.6963578916597L1194.0810267637635,339.3292277279939L1194.4122099635317,325.30012327804326L1195.4057595628358,325.70546571427246L1196.39930916214,339.4795249302178L1197.5584503613281,339.57254228632956L1198.3864083607484,339.7737443841055L1199.5455495599367,119.46805678558597L1200.5390991592408,334.84959986464554L1202.6917899577331,339.451152473618L1203.8509311569214,339.6588617276188L1206.997171554718,339.7679841294432L1210.3090035523987,339.3951989921017L1210.8057783520508,331.9548916224054L1211.468144751587,337.4351823818757L1211.633736351471,339.32799429200156L1212.7928775506593,339.29683982379584L1215.6079347486877,338.01471908988896L1217.429442347412,327.41761958358506L1219.2509499461364,335.65223784095593L1220.4100911453247,335.5466867724052L1221.403640744629,339.69818589048447L1225.3778391418457,339.7670618108547L1229.1864459391784,335.4022674582131L1233.1606443363953,338.5970288859005L1234.4853771354676,335.9313658258939L1235.1477435350037,338.3888584396364L1237.300434333496,337.6976162750802L1239.1219419322206,339.2791723994509L1239.7843083317566,338.7289031902785L1241.109041130829,339.7614095845952L1241.274632730713,338.13851177077885L1241.9369991302492,339.8057905619364L1243.4273235292055,339.6852027776924L1243.5929151290895,334.0875540167193L1245.2488311279299,339.6650329737565L1245.4144227278139,339.6515594252038L1245.5800143276979,338.43543325349367L1246.9047471267702,339.8093010344478L1247.5671135263062,339.2660018579296L1250.2165791244508,339.5823769371508L1254.1907775216675,339.7872930525104L1254.8531439212038,339.3167878233317L1255.1843271209718,339.4766348682299L1255.3499187208558,339.75291195284973L1255.8466935205079,339.80608216169605L1257.3370179194642,339.6539520510147L1257.5026095193482,339.6481639045838L1258.9929339183045,339.77826786191736L1259.4897087179568,338.7095201474187L1261.145624716797,339.27487161620184L1261.9735827162172,330.92875305734617L1267.9348803120424,339.45579885983835L1269.4252047109985,339.5390148857918L1269.7563879107668,336.57205307175593L1270.4187543103028,338.62553027324503L1271.412303909607,339.75131636345117L1271.9090787092591,339.6181774399076L1273.0682199084474,336.79339441121056L1273.5649947080994,339.2356260733965L1274.3929527075195,339.01051826818406L1274.8897275071718,335.27392681453875L1276.214460306244,339.0056095806498L1276.87682670578,339.5893671111127L1277.5391931053161,339.27637904651124L1279.1951091041565,339.1391923382814L1279.3607007040405,339.5614711443892L1281.347799902649,339.71098158553707L1282.010166302185,339.8095036096822L1283.1693075013734,309.952491577366L1283.8316739009094,339.7318252537248L1285.6531814996338,339.06970719486617L1287.6402806982421,339.3039106618957L1290.2897462963867,338.89570124197417L1294.4295362934874,339.3188754200129L1296.913410291748,338.8445752123917L1298.2381430908204,339.7735178431601L1299.2316926901244,339.8262474049211L1299.8940590896607,336.346084116428L1300.5564254891967,339.8011087093211L1301.881158288269,336.2812918674936L1302.8747078875733,336.4838867733775L1303.0402994874573,339.32806357084695L1305.855356685486,335.7381274325053L1307.3456810844423,339.6767256361765L1308.3392306837466,339.69282170333327L1309.6639634828186,328.6094316499441L1310.160738282471,339.70891896836343L1310.823104682007,335.77575182395236L1312.4790206808473,339.61622835695863L1313.8037534799196,335.8714079743613L1314.3005282795716,338.290721614224L1316.6188106779482,339.68785896862863L1317.2811770774842,339.0022527216697L1318.6059098765566,339.39829649499796L1319.1026846762086,338.5913434488746L1320.0962342755129,321.83181327416L1323.0768830734255,294.0000309392192L1323.4080662731935,339.79570847332263L1326.3887150711062,339.58564328525347L1327.0510814706422,339.6841848710015L1327.5478562702942,334.4259090844548L1330.0317302685548,338.55647333112006L1330.5285050682069,339.4816251430339L1331.190871467743,339.54856138760806L1332.3500126669312,337.9521963385637L1334.5027034654236,338.163898950937L1335.4962530647279,339.67352261052105L1337.8145354631042,339.78576324724395L1339.8016346617128,338.88162647085227L1340.9607758609009,314.63999250665523L1342.2855086599732,339.7664075411747L1343.6102414590455,332.7298778443182L1343.7758330589295,339.60516556716334L1344.6037910583498,339.3615385287054L1345.2661574578858,339.57464190570374L1347.4188482563782,339.8256846901366L1348.0812146559144,134.7725006870256L1350.3994970542908,339.7333311674605L1352.3865962528992,339.7317596344377L1352.5521878527832,339.2440693008075L1353.7113290519715,339.5329640863777L1355.0360618510438,336.75738523670293L1356.0296114503478,339.75947645863914L1357.0231610496521,339.4764425491L1358.1823022488404,332.96351002462484L1358.5134854486084,339.68941013780295L1360.0038098475648,336.6645962458209L1360.3349930473328,316.0176638901912L1360.5005846472168,337.3977424409587L1363.6468250450134,339.7601520152994L1364.1435998446655,339.58716981559985L1365.6339242436218,339.7976883081005L1367.7866150421144,339.80236871282756L1369.6081226408387,339.74559070974783L1370.1048974404907,339.2667176807209L1371.760813439331,339.1567911871194L1374.4102790374757,295.6253787668748L1376.2317866362,333.0748632843978L1376.7285614358523,339.6242421302577L1379.2124354341126,338.7235823463643L1380.868351432953,339.70979310826243L1381.033943032837,339.2240769030268L1381.8619010322573,338.4557021512349L1382.0274926321413,338.6930538494523L1382.8554506315613,339.74339376590416L1383.1866338313296,339.6312241279092L1383.8490002308656,336.62647529737006L1384.0145918307496,334.28372392511056L1384.1801834306336,339.5596161989069L1386.6640574288942,339.7090927918879L1387.8231986280823,337.7438818837351L1387.9887902279663,338.0239208679071L1388.6511566275026,339.77531991187135L1388.9823398272706,334.5725783786118L1390.472664226227,338.37068461154826L1391.135030625763,338.3542214786053L1391.6318054254152,339.4624478266948L1395.9371870224,339.5532792506068L1396.102778622284,339.8012441102308L1397.5931030212403,339.7287412241573L1398.0898778208925,338.59763199869195L1398.7522442204286,339.7082101130195L1399.2490190200806,339.058523672616L1400.904935018921,339.49589955240236L1401.070526618805,339.1523816061911L1401.236118218689,339.7470141790199L1401.4017098185732,338.2489897257483L1402.2296678179932,339.7485617875429L1403.2232174172975,339.69834441639586L1403.8855838168336,339.7411843707706L1404.2167670166016,339.75945851801174L1406.8662326147462,339.454558214626L1407.8597822140503,339.4283130493758L1408.0253738139343,339.58600915316623L1409.3501066130066,339.05835768472235L1410.3436562123109,337.11376018930537L1411.171614211731,339.6812637961802L1412.4963470108032,318.7089873773757L1413.6554882099915,338.80833112281425L1415.3114042088318,333.07469870318124L1418.2920530067445,256.0686997432927L1419.6167858058166,339.59174553827705L1423.4253926031495,339.7594101030445L1424.5845338023375,336.52369432762885L1425.5780834016418,339.44767099184173L1426.0748582012939,338.5167992353552L1431.208197797699,339.51908915131634L1431.373789397583,339.35846700537616L1434.0232549957277,334.4053810943817L1434.1888465956117,339.3471899830598L1435.844762594452,339.34293460910476L1436.341537394104,339.7314607045718L1436.672720593872,-2594.083054915471L1438.4942281925967,339.77741064610177L1439.4877777919007,339.79930784947294L1439.984552591553,338.50198112332197L1440.646918991089,332.4825516627876L1443.2963845892336,333.0737323160378L1443.6275677890017,338.6755993608481L1443.7931593888857,339.74750643906486L1444.4555257884217,322.16583014982825L1444.952300588074,339.6192622077177L1445.283483787842,339.47914805066114L1445.780258587494,338.2216850689165L1447.6017661862184,338.3204480414572L1448.2641325857546,339.45664255836647L1450.085640184479,339.0960817744064L1450.582414984131,339.76742129377243L1453.8942469818116,338.74547384609957L1455.218979780884,339.2698547464096L1456.8748957797243,339.17349565309627L1457.0404873796083,305.6120994671853L1458.8619949783326,339.18414850642387L1462.6706017756653,338.30862351405216L1463.4985597750856,337.0050252830536L1466.313616973114,339.5597920774986L1469.1286741711426,339.8133065006832L1470.122223770447,339.76588991698395L1470.453406970215,339.02659254283594L1473.5996473680116,339.6056821693153L1473.7652389678956,338.75902638836124L1474.4276053674316,339.1067072854485L1475.089971766968,339.458236411398L1478.0706205648803,338.29695108360465L1479.0641701641846,339.79667634132335L1479.2297617640686,339.754639780882L1486.184608959198,236.58993602592003L1487.5093417582702,339.29981433036625L1488.8340745573425,339.5482858767174L1488.9996661572266,339.1804261312003L1490.1588073564149,338.9077680695036" fill="none"></path></g></g></g></g></g></g><g transform="translate(49, 377)" clip-path="url(#clip_1)"><clipPath id="clip_1"><rect width="1655" height="22"></rect></clipPath><g><g><line x1="0" y1="0" x2="0" y2="5" style="visibility: inherit;" fill="rgb(0, 0, 0)" stroke="rgb(204, 204, 204)" stroke-width="1px"></line><line x1="165.59159988403323" y1="0" x2="165.59159988403323" y2="5" style="visibility: inherit;" fill="rgb(0, 0, 0)" stroke="rgb(204, 204, 204)" stroke-width="1px"></line><line x1="331.18319976806646" y1="0" x2="331.18319976806646" y2="5" style="visibility: inherit;" fill="rgb(0, 0, 0)" stroke="rgb(204, 204, 204)" stroke-width="1px"></line><line x1="496.7747996520996" y1="0" x2="496.7747996520996" y2="5" style="visibility: inherit;" fill="rgb(0, 0, 0)" stroke="rgb(204, 204, 204)" stroke-width="1px"></line><line x1="662.3663995361329" y1="0" x2="662.3663995361329" y2="5" style="visibility: inherit;" fill="rgb(0, 0, 0)" stroke="rgb(204, 204, 204)" stroke-width="1px"></line><line x1="827.9579994201661" y1="0" x2="827.9579994201661" y2="5" style="visibility: inherit;" fill="rgb(0, 0, 0)" stroke="rgb(204, 204, 204)" stroke-width="1px"></line><line x1="993.5495993041992" y1="0" x2="993.5495993041992" y2="5" style="visibility: inherit;" fill="rgb(0, 0, 0)" stroke="rgb(204, 204, 204)" stroke-width="1px"></line><line x1="1159.1411991882323" y1="0" x2="1159.1411991882323" y2="5" style="visibility: inherit;" fill="rgb(0, 0, 0)" stroke="rgb(204, 204, 204)" stroke-width="1px"></line><line x1="1324.7327990722658" y1="0" x2="1324.7327990722658" y2="5" style="visibility: inherit;" fill="rgb(0, 0, 0)" stroke="rgb(204, 204, 204)" stroke-width="1px"></line><line x1="1490.3243989562989" y1="0" x2="1490.3243989562989" y2="5" style="visibility: inherit;" fill="rgb(0, 0, 0)" stroke="rgb(204, 204, 204)" stroke-width="1px"></line><line x1="1655.9159988403321" y1="0" x2="1655.9159988403321" y2="5" style="visibility: inherit;" fill="rgb(0, 0, 0)" stroke="rgb(204, 204, 204)" stroke-width="1px"></line></g><g transform="translate(0, 8)"><text style="text-anchor: middle; visibility: hidden; font-family: Roboto, sans-serif; font-size: 12px; font-weight: 200;" x="0" y="0" dx="0em" dy="0.95em" fill="rgb(33, 33, 33)" stroke="none" stroke-width="1px">-1k</text><text style="text-anchor: middle; visibility: inherit; font-family: Roboto, sans-serif; font-size: 12px; font-weight: 200;" x="165.59159988403323" y="0" dx="0em" dy="0.95em" fill="rgb(33, 33, 33)" stroke="none" stroke-width="1px">0</text><text style="text-anchor: middle; visibility: inherit; font-family: Roboto, sans-serif; font-size: 12px; font-weight: 200;" x="331.18319976806646" y="0" dx="0em" dy="0.95em" fill="rgb(33, 33, 33)" stroke="none" stroke-width="1px">1k</text><text style="text-anchor: middle; visibility: inherit; font-family: Roboto, sans-serif; font-size: 12px; font-weight: 200;" x="496.7747996520996" y="0" dx="0em" dy="0.95em" fill="rgb(33, 33, 33)" stroke="none" stroke-width="1px">2k</text><text style="text-anchor: middle; visibility: inherit; font-family: Roboto, sans-serif; font-size: 12px; font-weight: 200;" x="662.3663995361329" y="0" dx="0em" dy="0.95em" fill="rgb(33, 33, 33)" stroke="none" stroke-width="1px">3k</text><text style="text-anchor: middle; visibility: inherit; font-family: Roboto, sans-serif; font-size: 12px; font-weight: 200;" x="827.9579994201661" y="0" dx="0em" dy="0.95em" fill="rgb(33, 33, 33)" stroke="none" stroke-width="1px">4k</text><text style="text-anchor: middle; visibility: inherit; font-family: Roboto, sans-serif; font-size: 12px; font-weight: 200;" x="993.5495993041992" y="0" dx="0em" dy="0.95em" fill="rgb(33, 33, 33)" stroke="none" stroke-width="1px">5k</text><text style="text-anchor: middle; visibility: inherit; font-family: Roboto, sans-serif; font-size: 12px; font-weight: 200;" x="1159.1411991882323" y="0" dx="0em" dy="0.95em" fill="rgb(33, 33, 33)" stroke="none" stroke-width="1px">6k</text><text style="text-anchor: middle; visibility: inherit; font-family: Roboto, sans-serif; font-size: 12px; font-weight: 200;" x="1324.7327990722658" y="0" dx="0em" dy="0.95em" fill="rgb(33, 33, 33)" stroke="none" stroke-width="1px">7k</text><text style="text-anchor: middle; visibility: inherit; font-family: Roboto, sans-serif; font-size: 12px; font-weight: 200;" x="1490.3243989562989" y="0" dx="0em" dy="0.95em" fill="rgb(33, 33, 33)" stroke="none" stroke-width="1px">8k</text><text style="text-anchor: middle; visibility: hidden; font-family: Roboto, sans-serif; font-size: 12px; font-weight: 200;" x="1655.9159988403321" y="0" dx="0em" dy="0.95em" fill="rgb(33, 33, 33)" stroke="none" stroke-width="1px">9k</text></g><line x1="0" y1="0" x2="1655.9159988403321" y2="0" fill="rgb(0, 0, 0)" stroke="rgb(204, 204, 204)" stroke-width="1px"></line></g></g></g></g></svg>